<svg width="246" height="200" viewBox="0 0 246 200" fill="none" xmlns="http://www.w3.org/2000/svg">
<path d="M198.338 79.8822C194.895 62.4097 185.5 46.6762 171.76 35.3691C158.019 24.0619 140.785 17.8826 123 17.8867C93.3775 17.8867 67.65 34.7199 54.8375 59.3539C39.7724 60.9842 25.8403 68.1319 15.7183 79.4236C5.5962 90.7154 -0.00175994 105.355 4.15051e-07 120.528C4.15051e-07 154.503 27.5725 182.113 61.5 182.113H194.75C223.04 182.113 246 159.122 246 130.792C246 103.695 224.988 81.7298 198.338 79.8822Z" fill="#FFFBFF"/>
<path d="M198.338 79.8822C194.895 62.4097 185.5 46.6762 171.76 35.3691C158.019 24.0619 140.785 17.8826 123 17.8867C93.3775 17.8867 67.65 34.7199 54.8375 59.3539C39.7724 60.9842 25.8403 68.1319 15.7183 79.4236C5.5962 90.7154 -0.00175994 105.355 4.15051e-07 120.528C4.15051e-07 154.503 27.5725 182.113 61.5 182.113H194.75C223.04 182.113 246 159.122 246 130.792C246 103.695 224.988 81.7298 198.338 79.8822Z" fill="#217D33" fill-opacity="0.11"/>
</svg>
