<svg width="22" height="22" viewBox="0 0 22 22" fill="none" xmlns="http://www.w3.org/2000/svg">
<g clip-path="url(#clip0_960_994)">
<path d="M15.16 18.3699C15.16 18.5475 15.0899 18.7179 14.9653 18.8435C14.8406 18.9691 14.6715 19.0397 14.4952 19.0397H2.52936C2.35306 19.0397 2.18397 18.9691 2.0593 18.8435C1.93463 18.7179 1.8646 18.5475 1.8646 18.3699C1.8646 18.1922 1.93463 18.0218 2.0593 17.8962C2.18397 17.7706 2.35306 17.7 2.52936 17.7H14.4952C14.6715 17.7 14.8406 17.7706 14.9653 17.8962C15.0899 18.0218 15.16 18.1922 15.16 18.3699ZM21.0681 7.77781L19.5225 5.86873C19.0708 5.30922 18.4345 4.93202 17.7297 4.80598C17.0249 4.67993 16.2987 4.81344 15.6835 5.18213L12.127 7.28379L7.29077 5.6594C7.21211 5.6325 7.12641 5.63548 7.04979 5.66777L5.6787 6.26227C5.52565 6.32898 5.39165 6.43331 5.28896 6.5657C5.18626 6.69809 5.11816 6.85432 5.09088 7.02008C5.0636 7.18585 5.07801 7.35587 5.1328 7.51457C5.18759 7.67328 5.281 7.81561 5.40449 7.92853L7.61484 9.93809L5.82828 10.9596L3.65947 10.0218C3.57397 9.98819 3.47906 9.98819 3.39356 10.0218L2.00586 10.6247C1.85321 10.6902 1.71919 10.793 1.61595 10.9239C1.51271 11.0548 1.44352 11.2096 1.41464 11.3742C1.38576 11.5389 1.3981 11.7082 1.45055 11.8668C1.50301 12.0254 1.59391 12.1683 1.71502 12.2826L4.84774 15.2383C5.31539 15.6845 5.91411 15.9657 6.55394 16.0397C7.19377 16.1137 7.84014 15.9764 8.39594 15.6486L20.9767 8.2802C21.0184 8.25512 21.0542 8.22113 21.0814 8.18063C21.1087 8.14012 21.1268 8.09408 21.1346 8.04575C21.1425 7.99889 21.1407 7.95087 21.1292 7.90475C21.1178 7.85862 21.097 7.8154 21.0681 7.77781V7.77781Z" fill="#513720"/>
</g>
<defs>
<clipPath id="clip0_960_994">
<rect width="21.84" height="21.84" fill="white" transform="translate(0.139648 0.139709)"/>
</clipPath>
</defs>
</svg>
