<svg width="18" height="18" viewBox="0 0 18 18" fill="none" xmlns="http://www.w3.org/2000/svg">
<path d="M12.2391 14.9271C12.2391 15.0667 12.1841 15.2006 12.0861 15.2993C11.9882 15.398 11.8553 15.4535 11.7168 15.4535H2.31506C2.17654 15.4535 2.04368 15.398 1.94573 15.2993C1.84778 15.2006 1.79275 15.0667 1.79275 14.9271C1.79275 14.7876 1.84778 14.6537 1.94573 14.555C2.04368 14.4563 2.17654 14.4008 2.31506 14.4008H11.7168C11.8553 14.4008 11.9882 14.4563 12.0861 14.555C12.1841 14.6537 12.2391 14.7876 12.2391 14.9271ZM16.8812 6.60481L15.6668 5.10482C15.3119 4.66521 14.8119 4.36884 14.2582 4.2698C13.7044 4.17077 13.1338 4.27566 12.6504 4.56535L9.85603 6.21666L6.05617 4.94035C5.99437 4.91921 5.92703 4.92155 5.86683 4.94693L4.78954 5.41403C4.66929 5.46645 4.564 5.54842 4.48332 5.65244C4.40263 5.75646 4.34912 5.87921 4.32768 6.00946C4.30625 6.13971 4.31757 6.27329 4.36062 6.39799C4.40367 6.52268 4.47706 6.63451 4.57409 6.72324L6.31079 8.30217L4.90707 9.1048L3.203 8.36796C3.13583 8.34154 3.06125 8.34154 2.99408 8.36796L1.90374 8.84164C1.7838 8.89312 1.6785 8.97393 1.59738 9.07677C1.51627 9.1796 1.4619 9.30121 1.43921 9.43057C1.41651 9.55992 1.42621 9.69294 1.46743 9.81757C1.50864 9.94219 1.58006 10.0545 1.67522 10.1443L4.13665 12.4666C4.50409 12.8172 4.97451 13.0382 5.47723 13.0963C5.97995 13.1544 6.48782 13.0466 6.92452 12.789L16.8094 6.99955C16.8422 6.97985 16.8703 6.95314 16.8917 6.92131C16.9131 6.88949 16.9274 6.85331 16.9334 6.81534C16.9397 6.77852 16.9382 6.74079 16.9293 6.70455C16.9203 6.66831 16.9039 6.63435 16.8812 6.60481V6.60481Z" fill="#201B17" fill-opacity="0.6"/>
</svg>
