<svg width="23" height="22" viewBox="0 0 23 22" fill="none" xmlns="http://www.w3.org/2000/svg">
<g clip-path="url(#clip0_960_955)">
<path d="M5.61816 21.1397C5.18066 21.1397 4.80896 20.9848 4.50306 20.675C4.19646 20.3658 4.04316 19.9902 4.04316 19.5481V17.9035C3.72816 17.5498 3.47441 17.1562 3.28191 16.7225C3.08941 16.2896 2.99316 15.8168 2.99316 15.3039V5.22392C2.99316 3.75613 3.66691 2.68163 5.01441 2.00044C6.36191 1.31995 8.48816 0.979706 11.3932 0.979706C14.4032 0.979706 16.5557 1.30686 17.8507 1.96118C19.1457 2.6155 19.7932 3.70307 19.7932 5.22392V15.3039C19.7932 15.8168 19.6969 16.2896 19.5044 16.7225C19.3119 17.1562 19.0582 17.5498 18.7432 17.9035V19.5481C18.7432 19.9902 18.5899 20.3658 18.2833 20.675C17.9774 20.9848 17.6057 21.1397 17.1682 21.1397C16.7307 21.1397 16.359 20.9848 16.0531 20.675C15.7465 20.3658 15.5932 19.9902 15.5932 19.5481V19.0176H7.19316V19.5481C7.19316 19.9902 7.03986 20.3658 6.73326 20.675C6.42736 20.9848 6.05566 21.1397 5.61816 21.1397ZM5.09316 9.46813H17.6932V6.28497H5.09316V9.46813ZM7.71816 15.8344C8.15566 15.8344 8.52736 15.6795 8.83326 15.3697C9.13986 15.0606 9.29316 14.685 9.29316 14.2429C9.29316 13.8008 9.13986 13.4251 8.83326 13.116C8.52736 12.8062 8.15566 12.6513 7.71816 12.6513C7.28066 12.6513 6.90896 12.8062 6.60306 13.116C6.29646 13.4251 6.14316 13.8008 6.14316 14.2429C6.14316 14.685 6.29646 15.0606 6.60306 15.3697C6.90896 15.6795 7.28066 15.8344 7.71816 15.8344ZM15.0682 15.8344C15.5057 15.8344 15.8774 15.6795 16.1833 15.3697C16.4899 15.0606 16.6432 14.685 16.6432 14.2429C16.6432 13.8008 16.4899 13.4251 16.1833 13.116C15.8774 12.8062 15.5057 12.6513 15.0682 12.6513C14.6307 12.6513 14.259 12.8062 13.9531 13.116C13.6465 13.4251 13.4932 13.8008 13.4932 14.2429C13.4932 14.685 13.6465 15.0606 13.9531 15.3697C14.259 15.6795 14.6307 15.8344 15.0682 15.8344Z" fill="#513720"/>
</g>
<defs>
<clipPath id="clip0_960_955">
<rect width="21.84" height="21.84" fill="white" transform="translate(0.473145 0.139709)"/>
</clipPath>
</defs>
</svg>
