<svg width="18" height="18" viewBox="0 0 18 18" fill="none" xmlns="http://www.w3.org/2000/svg">
<g clip-path="url(#clip0_960_988)">
<path d="M4.146 17.1035C3.80225 17.1035 3.5102 16.9817 3.26985 16.7383C3.02895 16.4954 2.9085 16.2003 2.9085 15.8529V14.5607C2.661 14.2828 2.46162 13.9735 2.31037 13.6328C2.15912 13.2927 2.0835 12.9211 2.0835 12.5182V4.5982C2.0835 3.44493 2.61287 2.60069 3.67162 2.06546C4.73037 1.53079 6.401 1.26346 8.6835 1.26346C11.0485 1.26346 12.7397 1.52051 13.7572 2.03462C14.7747 2.54872 15.2835 3.40325 15.2835 4.5982V12.5182C15.2835 12.9211 15.2079 13.2927 15.0566 13.6328C14.9054 13.9735 14.706 14.2828 14.4585 14.5607V15.8529C14.4585 16.2003 14.338 16.4954 14.0971 16.7383C13.8568 16.9817 13.5647 17.1035 13.221 17.1035C12.8772 17.1035 12.5852 16.9817 12.3448 16.7383C12.1039 16.4954 11.9835 16.2003 11.9835 15.8529V15.4361H5.3835V15.8529C5.3835 16.2003 5.26305 16.4954 5.02215 16.7383C4.7818 16.9817 4.48975 17.1035 4.146 17.1035ZM3.7335 7.93293H13.6335V5.43188H3.7335V7.93293ZM5.796 12.935C6.13975 12.935 6.4318 12.8133 6.67215 12.5699C6.91305 12.327 7.0335 12.0319 7.0335 11.6845C7.0335 11.3371 6.91305 11.042 6.67215 10.7991C6.4318 10.5557 6.13975 10.434 5.796 10.434C5.45225 10.434 5.1602 10.5557 4.91985 10.7991C4.67895 11.042 4.5585 11.3371 4.5585 11.6845C4.5585 12.0319 4.67895 12.327 4.91985 12.5699C5.1602 12.8133 5.45225 12.935 5.796 12.935ZM11.571 12.935C11.9147 12.935 12.2068 12.8133 12.4471 12.5699C12.688 12.327 12.8085 12.0319 12.8085 11.6845C12.8085 11.3371 12.688 11.042 12.4471 10.7991C12.2068 10.5557 11.9147 10.434 11.571 10.434C11.2272 10.434 10.9352 10.5557 10.6948 10.7991C10.4539 11.042 10.3335 11.3371 10.3335 11.6845C10.3335 12.0319 10.4539 12.327 10.6948 12.5699C10.9352 12.8133 11.2272 12.935 11.571 12.935Z" fill="#201B17" fill-opacity="0.6"/>
</g>
<defs>
<clipPath id="clip0_960_988">
<rect width="17.16" height="17.16" fill="white" transform="translate(0.103516 0.603455)"/>
</clipPath>
</defs>
</svg>
