<svg width="18" height="18" viewBox="0 0 18 18" fill="none" xmlns="http://www.w3.org/2000/svg">
<g clip-path="url(#clip0_1557_1964)">
<path fill-rule="evenodd" clip-rule="evenodd" d="M5.95227 1.73916C6.08606 1.44977 6.38421 1.26346 6.71456 1.26346H13.3027C13.9221 1.26346 14.326 1.8898 14.0485 2.42258L12.1745 6.02047H14.9479C15.6912 6.02047 16.0628 6.88307 15.5375 7.38732L5.66568 16.8641C5.04296 17.4619 4.00565 16.8466 4.2848 16.0451L6.38916 9.98464H3.41761C3.27865 9.98464 3.1419 9.95131 3.01976 9.88768C2.89763 9.82405 2.79399 9.73214 2.71826 9.62029C2.64253 9.50844 2.5971 9.3802 2.58611 9.24722C2.57512 9.11424 2.59891 8.98073 2.65532 8.85882L5.95227 1.73916Z" fill="#201B17" fill-opacity="0.6"/>
</g>
<defs>
<clipPath id="clip0_1557_1964">
<rect width="17.16" height="17.16" fill="white" transform="translate(0.603516 0.603455)"/>
</clipPath>
</defs>
</svg>
