<svg width="22" height="22" viewBox="0 0 22 22" fill="none" xmlns="http://www.w3.org/2000/svg">
<g clip-path="url(#clip0_960_1729)">
<path fill-rule="evenodd" clip-rule="evenodd" d="M6.94719 1.58514C7.11748 1.21684 7.49694 0.979706 7.91739 0.979706H16.3023C17.0906 0.979706 17.6046 1.77687 17.2514 2.45496L14.8664 7.03408H18.3961C19.3421 7.03408 19.8151 8.13194 19.1466 8.77371L6.58245 20.835C5.7899 21.5959 4.46968 20.8128 4.82496 19.7927L7.50324 12.0794H3.72127C3.54441 12.0794 3.37036 12.037 3.21492 11.956C3.05947 11.875 2.92757 11.758 2.83118 11.6157C2.7348 11.4733 2.67698 11.3101 2.66299 11.1409C2.64901 10.9716 2.67928 10.8017 2.75108 10.6465L6.94719 1.58514Z" fill="#513720"/>
</g>
<defs>
<clipPath id="clip0_960_1729">
<rect width="21.84" height="21.84" fill="white" transform="translate(0.139648 0.139709)"/>
</clipPath>
</defs>
</svg>
