<svg width="22" height="22" viewBox="0 0 22 22" fill="none" xmlns="http://www.w3.org/2000/svg">
<g clip-path="url(#clip0_960_921)">
<path d="M1.98749 1.82781C1.72015 1.82781 1.46377 1.93593 1.27473 2.12838C1.08569 2.32084 0.979492 2.58186 0.979492 2.85403V8.49822C0.979492 10.2325 2.01773 11.7103 3.49949 12.3157V18.7604C3.49949 19.1686 3.65879 19.5602 3.94235 19.8489C4.2259 20.1375 4.61048 20.2997 5.01149 20.2997C5.4125 20.2997 5.79708 20.1375 6.08064 19.8489C6.36419 19.5602 6.52349 19.1686 6.52349 18.7604V12.3157C8.00525 11.7103 9.04349 10.2325 9.04349 8.49822V2.85403C9.04349 2.58186 8.93729 2.32084 8.74826 2.12838C8.55922 1.93593 8.30283 1.82781 8.03549 1.82781C7.76815 1.82781 7.51177 1.93593 7.32273 2.12838C7.13369 2.32084 7.02749 2.58186 7.02749 2.85403V6.95889C7.02749 7.09498 6.97439 7.22549 6.87987 7.32172C6.78536 7.41794 6.65716 7.472 6.52349 7.472C6.38982 7.472 6.26163 7.41794 6.16711 7.32172C6.07259 7.22549 6.01949 7.09498 6.01949 6.95889V2.85403C6.01949 2.58186 5.91329 2.32084 5.72426 2.12838C5.53522 1.93593 5.27883 1.82781 5.01149 1.82781C4.74415 1.82781 4.48777 1.93593 4.29873 2.12838C4.10969 2.32084 4.00349 2.58186 4.00349 2.85403V6.95889C4.00349 7.09498 3.95039 7.22549 3.85587 7.32172C3.76136 7.41794 3.63316 7.472 3.49949 7.472C3.36582 7.472 3.23763 7.41794 3.14311 7.32172C3.04859 7.22549 2.99549 7.09498 2.99549 6.95889V2.85403C2.99549 2.58186 2.88929 2.32084 2.70026 2.12838C2.51122 1.93593 2.25483 1.82781 1.98749 1.82781M19.0025 1.82781C18.8715 1.82781 18.7405 1.92017 18.6195 1.992L15.0915 4.1368V7.98511H11.0595V10.0375H12.0675L13.0755 20.2997H19.1235L20.1315 10.0375H21.1395V7.98511H17.1075V5.25537L19.6275 3.71605C20.1315 3.42871 20.2625 2.85403 19.9702 2.34092C19.7585 1.97148 19.3856 1.7765 19.0025 1.82781Z" fill="#513720"/>
</g>
<defs>
<clipPath id="clip0_960_921">
<rect width="21.84" height="21.84" fill="white" transform="translate(0.139648 0.139709)"/>
</clipPath>
</defs>
</svg>
