<svg width="18" height="18" viewBox="0 0 18 18" fill="none" xmlns="http://www.w3.org/2000/svg">
<g clip-path="url(#clip0_960_982)">
<path d="M1.55567 1.92982C1.34562 1.92982 1.14417 2.01477 0.995643 2.16598C0.847114 2.3172 0.763672 2.52228 0.763672 2.73613V7.17085C0.763672 8.53352 1.57943 9.69461 2.74367 10.1703V15.234C2.74367 15.5548 2.86884 15.8624 3.09163 16.0892C3.31442 16.316 3.61659 16.4435 3.93167 16.4435C4.24675 16.4435 4.54892 16.316 4.77171 16.0892C4.99451 15.8624 5.11967 15.5548 5.11967 15.234V10.1703C6.28391 9.69461 7.09967 8.53352 7.09967 7.17085V2.73613C7.09967 2.52228 7.01623 2.3172 6.8677 2.16598C6.71917 2.01477 6.51772 1.92982 6.30767 1.92982C6.09762 1.92982 5.89617 2.01477 5.74764 2.16598C5.59911 2.3172 5.51567 2.52228 5.51567 2.73613V5.96138C5.51567 6.06831 5.47395 6.17085 5.39969 6.24646C5.32542 6.32207 5.2247 6.36454 5.11967 6.36454C5.01465 6.36454 4.91392 6.32207 4.83966 6.24646C4.76539 6.17085 4.72367 6.06831 4.72367 5.96138V2.73613C4.72367 2.52228 4.64023 2.3172 4.4917 2.16598C4.34317 2.01477 4.14172 1.92982 3.93167 1.92982C3.72162 1.92982 3.52017 2.01477 3.37164 2.16598C3.22311 2.3172 3.13967 2.52228 3.13967 2.73613V5.96138C3.13967 6.06831 3.09795 6.17085 3.02369 6.24646C2.94942 6.32207 2.8487 6.36454 2.74367 6.36454C2.63865 6.36454 2.53792 6.32207 2.46366 6.24646C2.38939 6.17085 2.34767 6.06831 2.34767 5.96138V2.73613C2.34767 2.52228 2.26423 2.3172 2.1157 2.16598C1.96717 2.01477 1.76572 1.92982 1.55567 1.92982M14.9246 1.92982C14.8217 1.92982 14.7187 2.00239 14.6237 2.05883L11.8517 3.74402V6.7677H8.68367V8.38032H9.47567L10.2677 16.4435H15.0197L15.8117 8.38032H16.6037V6.7677H13.4357V4.62291L15.4157 3.41344C15.8117 3.18767 15.9146 2.73613 15.685 2.33298C15.5186 2.0427 15.2256 1.8895 14.9246 1.92982Z" fill="#201B17" fill-opacity="0.6"/>
</g>
<defs>
<clipPath id="clip0_960_982">
<rect width="17.16" height="17.16" fill="white" transform="translate(0.103516 0.603455)"/>
</clipPath>
</defs>
</svg>
