<svg width="22" height="22" viewBox="0 0 22 22" fill="none" xmlns="http://www.w3.org/2000/svg">
<path d="M3.77947 7.41971H18.3395V19.2497C18.3395 19.4911 18.2436 19.7225 18.0729 19.8932C17.9023 20.0638 17.6708 20.1597 17.4295 20.1597H4.68947C4.44813 20.1597 4.21666 20.0638 4.04601 19.8932C3.87535 19.7225 3.77947 19.4911 3.77947 19.2497V7.41971ZM6.50947 4.68971V2.86971C6.50947 2.62836 6.60535 2.3969 6.77601 2.22624C6.94666 2.05558 7.17813 1.95971 7.41947 1.95971H14.6995C14.9408 1.95971 15.1723 2.05558 15.3429 2.22624C15.5136 2.3969 15.6095 2.62836 15.6095 2.86971V4.68971H20.1595V6.50971H1.95947V4.68971H6.50947ZM8.32947 3.77971V4.68971H13.7895V3.77971H8.32947ZM8.32947 11.0597V16.5197H10.1495V11.0597H8.32947ZM11.9695 11.0597V16.5197H13.7895V11.0597H11.9695Z" fill="#513720"/>
</svg>
