<svg width="54" height="54" viewBox="0 0 54 54" fill="none" xmlns="http://www.w3.org/2000/svg">
<g filter="url(#filter0_d_960_861)">
<path d="M7.60889 15.8004C7.60889 13.581 9.40808 11.7818 11.6275 11.7818H42.3721C44.5915 11.7818 46.3907 13.581 46.3907 15.8004V38.1996C46.3907 40.419 44.5915 42.2182 42.3721 42.2182H11.6275C9.40808 42.2182 7.60889 40.419 7.60889 38.1996V15.8004Z" fill="#DFE6E5"/>
<path d="M41.5545 16.988C42.1117 16.988 42.5621 16.5376 42.5621 15.9804C42.5621 15.4231 42.1117 14.9727 41.5545 14.9727C40.9973 14.9727 40.5469 15.4231 40.5469 15.9804C40.5469 16.5376 40.9973 16.988 41.5545 16.988Z" fill="#C6C9CB"/>
<path d="M41.5545 38.9536C42.1117 38.9536 42.5621 38.5032 42.5621 37.946C42.5621 37.3887 42.1117 36.9384 41.5545 36.9384C40.9973 36.9384 40.5469 37.3887 40.5469 37.946C40.5469 38.5032 40.9973 38.9536 41.5545 38.9536Z" fill="#C6C9CB"/>
<path d="M12.3352 16.988C12.8925 16.988 13.3429 16.5376 13.3429 15.9804C13.3429 15.4231 12.8925 14.9727 12.3352 14.9727C11.778 14.9727 11.3276 15.4231 11.3276 15.9804C11.3278 16.5376 11.7781 16.988 12.3352 16.988Z" fill="#C6C9CB"/>
<path d="M12.3352 38.9536C12.8925 38.9536 13.3429 38.5032 13.3429 37.946C13.3429 37.3887 12.8925 36.9384 12.3352 36.9384C11.778 36.9384 11.3276 37.3887 11.3276 37.946C11.3276 38.5032 11.7781 38.9536 12.3352 38.9536Z" fill="#C6C9CB"/>
<path d="M38.3423 32.3293H15.6571C12.6794 28.9089 12.6794 25.0203 15.6571 21.6H38.3423C41.3199 25.0203 41.3199 28.909 38.3423 32.3293Z" fill="#C6C9CB"/>
<path d="M20.6495 26.1242C21.4971 26.1242 22.1822 26.8093 22.1822 27.6569C22.1822 28.5045 21.4971 29.1897 20.6495 29.1897C19.8018 29.1897 19.1167 28.5045 19.1167 27.6569C19.1167 26.8093 19.8018 26.1242 20.6495 26.1242Z" fill="#8B8C8D"/>
<path d="M33.3492 26.1242C34.1968 26.1242 34.8819 26.8093 34.8819 27.6569C34.8819 28.5045 34.1968 29.1897 33.3492 29.1897C32.5015 29.1897 31.8164 28.5045 31.8164 27.6569C31.8164 26.8093 32.5015 26.1242 33.3492 26.1242Z" fill="#8B8C8D"/>
<path d="M26.9996 24.5914C27.8472 24.5914 28.5323 25.2765 28.5323 26.1242C28.5323 26.9718 27.8472 27.6569 26.9996 27.6569C26.1519 27.6569 25.4668 26.9718 25.4668 26.1242C25.4668 25.2765 26.1519 24.5914 26.9996 24.5914Z" fill="#8B8C8D"/>
</g>
<defs>
<filter id="filter0_d_960_861" x="5.60889" y="11.7818" width="42.7817" height="34.4364" filterUnits="userSpaceOnUse" color-interpolation-filters="sRGB">
<feFlood flood-opacity="0" result="BackgroundImageFix"/>
<feColorMatrix in="SourceAlpha" type="matrix" values="0 0 0 0 0 0 0 0 0 0 0 0 0 0 0 0 0 0 127 0" result="hardAlpha"/>
<feMorphology radius="2" operator="erode" in="SourceAlpha" result="effect1_dropShadow_960_861"/>
<feOffset dy="2"/>
<feGaussianBlur stdDeviation="2"/>
<feComposite in2="hardAlpha" operator="out"/>
<feColorMatrix type="matrix" values="0 0 0 0 0 0 0 0 0 0 0 0 0 0 0 0 0 0 0.2 0"/>
<feBlend mode="normal" in2="BackgroundImageFix" result="effect1_dropShadow_960_861"/>
<feBlend mode="normal" in="SourceGraphic" in2="effect1_dropShadow_960_861" result="shape"/>
</filter>
</defs>
</svg>
