<svg width="54" height="54" viewBox="0 0 54 54" fill="none" xmlns="http://www.w3.org/2000/svg">
<g filter="url(#filter0_d_960_883)">
<path d="M23.2459 4.94845C23.2459 4.42464 23.6592 4 24.169 4H31.7844C32.2942 4 32.7075 4.42464 32.7075 4.94845V49.0515C32.7075 49.5754 32.2942 50 31.7844 50H24.169C23.6592 50 23.2459 49.5754 23.2459 49.0515V4.94845Z" fill="#D5E6DE"/>
<path d="M20.0152 11.5876C20.0152 11.0638 20.4284 10.6392 20.9382 10.6392H35.0152C35.525 10.6392 35.9382 11.0638 35.9382 11.5876V12.7732C35.9382 13.297 35.525 13.7216 35.0152 13.7216H20.9382C20.4284 13.7216 20.0152 13.297 20.0152 12.7732V11.5876Z" fill="#9DB4C0"/>
<path d="M20.0152 40.9897C20.0152 40.4659 20.4284 40.0412 20.9382 40.0412H35.0152C35.525 40.0412 35.9382 40.4659 35.9382 40.9897V42.1753C35.9382 42.6991 35.525 43.1237 35.0152 43.1237H20.9382C20.4284 43.1237 20.0152 42.6991 20.0152 42.1753V40.9897Z" fill="#9DB4C0"/>
<path d="M37 26.6733C37 31.7805 32.9706 35.9208 28 35.9208C23.0294 35.9208 19 31.7805 19 26.6733C19 21.5661 23.0294 17.4259 28 17.4259C32.9706 17.4259 37 21.5661 37 26.6733Z" fill="#96ACB7"/>
<path d="M35.9821 26.622C35.9821 31.1799 32.386 34.8748 27.95 34.8748C23.514 34.8748 19.9179 31.1799 19.9179 26.622C19.9179 22.064 23.514 18.3691 27.95 18.3691C32.386 18.3691 35.9821 22.064 35.9821 26.622Z" fill="#DFE3E6"/>
<path d="M22.0832 25.9146H19.459V27.4998H22.0832C22.3381 27.4998 22.5447 27.2875 22.5447 27.0256V26.3888C22.5447 26.1269 22.3381 25.9146 22.0832 25.9146Z" fill="#96ACB7"/>
<path d="M34.3206 25.9146H36.9448V27.4998H34.3206C34.0657 27.4998 33.8591 27.2875 33.8591 27.0256V26.3888C33.8591 26.1269 34.0657 25.9146 34.3206 25.9146Z" fill="#96ACB7"/>
<path d="M27.6645 28.811C27.7868 29.2796 28.4339 29.2796 28.5561 28.811L29.4021 25.5684C29.4806 25.2672 29.2597 24.9714 28.9563 24.9714H27.2644C26.9609 24.9714 26.74 25.2672 26.8186 25.5684L27.6645 28.811Z" fill="#96ACB7"/>
<path d="M28.8044 20.5938V17.8975H27.2615V20.5938C27.2615 20.8557 27.4682 21.068 27.7231 21.068H28.3429C28.5978 21.068 28.8044 20.8557 28.8044 20.5938Z" fill="#96ACB7"/>
<path d="M28.8044 35.8639V33.1676C28.8044 32.9057 28.5978 32.6934 28.3429 32.6934H27.7231C27.4682 32.6934 27.2615 32.9057 27.2615 33.1676V35.8639H28.8044Z" fill="#96ACB7"/>
</g>
<defs>
<filter id="filter0_d_960_883" x="17" y="4" width="22" height="50" filterUnits="userSpaceOnUse" color-interpolation-filters="sRGB">
<feFlood flood-opacity="0" result="BackgroundImageFix"/>
<feColorMatrix in="SourceAlpha" type="matrix" values="0 0 0 0 0 0 0 0 0 0 0 0 0 0 0 0 0 0 127 0" result="hardAlpha"/>
<feMorphology radius="2" operator="erode" in="SourceAlpha" result="effect1_dropShadow_960_883"/>
<feOffset dy="2"/>
<feGaussianBlur stdDeviation="2"/>
<feComposite in2="hardAlpha" operator="out"/>
<feColorMatrix type="matrix" values="0 0 0 0 0 0 0 0 0 0 0 0 0 0 0 0 0 0 0.2 0"/>
<feBlend mode="normal" in2="BackgroundImageFix" result="effect1_dropShadow_960_883"/>
<feBlend mode="normal" in="SourceGraphic" in2="effect1_dropShadow_960_883" result="shape"/>
</filter>
</defs>
</svg>
