<svg width="40" height="41" viewBox="0 0 40 41" fill="none" xmlns="http://www.w3.org/2000/svg">
<path d="M36.4102 19.9662C36.4102 10.7662 28.9436 3.29956 19.7436 3.29956C10.5436 3.29956 3.0769 10.7662 3.0769 19.9662C3.0769 28.0329 8.81024 34.7496 16.4102 36.2996V24.9662H13.0769V19.9662H16.4102V15.7996C16.4102 12.5829 19.0269 9.96623 22.2436 9.96623H26.4102V14.9662H23.0769C22.1602 14.9662 21.4102 15.7162 21.4102 16.6329V19.9662H26.4102V24.9662H21.4102V36.5496C29.8269 35.7162 36.4102 28.6162 36.4102 19.9662Z" fill="#FFFBFF"/>
<path d="M36.4102 19.9662C36.4102 10.7662 28.9436 3.29956 19.7436 3.29956C10.5436 3.29956 3.0769 10.7662 3.0769 19.9662C3.0769 28.0329 8.81024 34.7496 16.4102 36.2996V24.9662H13.0769V19.9662H16.4102V15.7996C16.4102 12.5829 19.0269 9.96623 22.2436 9.96623H26.4102V14.9662H23.0769C22.1602 14.9662 21.4102 15.7162 21.4102 16.6329V19.9662H26.4102V24.9662H21.4102V36.5496C29.8269 35.7162 36.4102 28.6162 36.4102 19.9662Z" fill="#217D33" fill-opacity="0.11"/>
</svg>
