<svg width="40" height="41" viewBox="0 0 40 41" fill="none" xmlns="http://www.w3.org/2000/svg">
<path d="M19.7436 15.8329C18.9261 15.8329 18.1269 16.0753 17.4472 16.5295C16.7675 16.9837 16.2377 17.6292 15.9249 18.3845C15.612 19.1397 15.5302 19.9708 15.6897 20.7726C15.8491 21.5744 16.2428 22.3109 16.8209 22.8889C17.3989 23.467 18.1354 23.8607 18.9372 24.0201C19.739 24.1796 20.5701 24.0978 21.3253 23.7849C22.0806 23.4721 22.7261 22.9423 23.1803 22.2626C23.6345 21.5829 23.8769 20.7837 23.8769 19.9662C23.8769 19.4234 23.77 18.8859 23.5623 18.3845C23.3546 17.883 23.0501 17.4273 22.6663 17.0435C22.2825 16.6597 21.8268 16.3552 21.3253 16.1475C20.8239 15.9398 20.2864 15.8329 19.7436 15.8329ZM36.2936 11.7496C36.2848 10.4625 36.0478 9.18718 35.5936 7.98289C35.259 7.10166 34.7414 6.30138 34.0749 5.63487C33.4084 4.96836 32.6081 4.45076 31.7269 4.11623C30.5226 3.662 29.2473 3.425 27.9602 3.41623C25.8102 3.29956 25.1769 3.29956 19.7436 3.29956C14.3102 3.29956 13.6769 3.29956 11.5269 3.41623C10.2398 3.425 8.96452 3.662 7.76024 4.11623C6.879 4.45076 6.07873 4.96836 5.41221 5.63487C4.7457 6.30138 4.2281 7.10166 3.89357 7.98289C3.43934 9.18718 3.20234 10.4625 3.19357 11.7496C3.0769 13.8996 3.0769 14.5329 3.0769 19.9662C3.0769 25.3996 3.0769 26.0329 3.19357 28.1829C3.21151 29.4745 3.44819 30.7537 3.89357 31.9662C4.22662 32.8434 4.74379 33.6391 5.41024 34.2996C6.07389 34.9701 6.87589 35.4877 7.76024 35.8162C8.96452 36.2705 10.2398 36.5075 11.5269 36.5162C13.6769 36.6329 14.3102 36.6329 19.7436 36.6329C25.1769 36.6329 25.8102 36.6329 27.9602 36.5162C29.2473 36.5075 30.5226 36.2705 31.7269 35.8162C32.6113 35.4877 33.4133 34.9701 34.0769 34.2996C34.7434 33.6391 35.2605 32.8434 35.5936 31.9662C36.0474 30.756 36.2843 29.4753 36.2936 28.1829C36.4102 26.0329 36.4102 25.3996 36.4102 19.9662C36.4102 14.5329 36.4102 13.8996 36.2936 11.7496ZM32.0602 25.0829C32.0068 26.1114 31.7873 27.1245 31.4102 28.0829C31.0867 28.8824 30.6057 29.6086 29.9958 30.2185C29.386 30.8283 28.6597 31.3093 27.8602 31.6329C26.8928 31.9889 25.874 32.1859 24.8436 32.2162H14.6436C13.6131 32.1859 12.5944 31.9889 11.6269 31.6329C10.8004 31.3258 10.054 30.8358 9.44357 30.1996C8.83968 29.6016 8.37331 28.8793 8.0769 28.0829C7.7195 27.1164 7.52792 26.0965 7.51024 25.0662V14.8662C7.52792 13.8359 7.7195 12.816 8.0769 11.8496C8.38404 11.0231 8.87403 10.2767 9.51024 9.66623C10.1108 9.0656 10.8323 8.59972 11.6269 8.29956C12.5944 7.94357 13.6131 7.74658 14.6436 7.71623H24.8436C25.874 7.74658 26.8928 7.94357 27.8602 8.29956C28.6867 8.6067 29.4331 9.09668 30.0436 9.73289C30.6475 10.3308 31.1138 11.0531 31.4102 11.8496C31.7662 12.817 31.9632 13.8358 31.9936 14.8662V19.9662C31.9936 23.3996 32.1102 23.7496 32.0602 25.0662V25.0829ZM29.3936 12.6829C29.1951 12.1445 28.8823 11.6556 28.4765 11.2499C28.0708 10.8442 27.5819 10.5313 27.0436 10.3329C26.3044 10.0767 25.5258 9.95254 24.7436 9.96623H14.7436C13.9573 9.97391 13.1787 10.1206 12.4436 10.3996C11.9135 10.589 11.4297 10.8891 11.0245 11.2799C10.6194 11.6707 10.302 12.1433 10.0936 12.6662C9.85153 13.4085 9.73329 14.1856 9.74357 14.9662V24.9662C9.76009 25.7516 9.90652 26.5287 10.1769 27.2662C10.3753 27.8046 10.6882 28.2935 11.0939 28.6992C11.4996 29.1049 11.9885 29.4178 12.5269 29.6162C13.238 29.8778 13.9863 30.024 14.7436 30.0496H24.7436C25.5298 30.0419 26.3085 29.8952 27.0436 29.6162C27.5819 29.4178 28.0708 29.1049 28.4765 28.6992C28.8823 28.2935 29.1951 27.8046 29.3936 27.2662C29.6725 26.5311 29.8192 25.7524 29.8269 24.9662V14.9662C29.8274 14.1792 29.6804 13.3991 29.3936 12.6662V12.6829ZM19.7436 26.3329C18.9083 26.3329 18.0812 26.1681 17.3097 25.8479C16.5382 25.5278 15.8374 25.0586 15.2475 24.4671C14.6577 23.8757 14.1903 23.1737 13.8721 22.4014C13.554 21.629 13.3914 20.8015 13.3936 19.9662C13.3936 18.7063 13.7674 17.4747 14.4677 16.4274C15.168 15.38 16.1634 14.564 17.3277 14.0826C18.492 13.6012 19.773 13.4761 21.0085 13.7231C22.2439 13.9702 23.3783 14.5782 24.268 15.4702C25.1578 16.3623 25.7628 17.4983 26.0066 18.7344C26.2504 19.9705 26.1219 21.2512 25.6375 22.4142C25.153 23.5773 24.3344 24.5705 23.2852 25.268C22.236 25.9656 21.0035 26.3362 19.7436 26.3329ZM26.4102 14.8496C26.0418 14.8106 25.7008 14.6366 25.453 14.3612C25.2052 14.0858 25.0681 13.7284 25.0681 13.3579C25.0681 12.9874 25.2052 12.63 25.453 12.3546C25.7008 12.0792 26.0418 11.9052 26.4102 11.8662C26.7787 11.9052 27.1196 12.0792 27.3674 12.3546C27.6152 12.63 27.7523 12.9874 27.7523 13.3579C27.7523 13.7284 27.6152 14.0858 27.3674 14.3612C27.1196 14.6366 26.7787 14.8106 26.4102 14.8496Z" fill="#FFFBFF"/>
<path d="M19.7436 15.8329C18.9261 15.8329 18.1269 16.0753 17.4472 16.5295C16.7675 16.9837 16.2377 17.6292 15.9249 18.3845C15.612 19.1397 15.5302 19.9708 15.6897 20.7726C15.8491 21.5744 16.2428 22.3109 16.8209 22.8889C17.3989 23.467 18.1354 23.8607 18.9372 24.0201C19.739 24.1796 20.5701 24.0978 21.3253 23.7849C22.0806 23.4721 22.7261 22.9423 23.1803 22.2626C23.6345 21.5829 23.8769 20.7837 23.8769 19.9662C23.8769 19.4234 23.77 18.8859 23.5623 18.3845C23.3546 17.883 23.0501 17.4273 22.6663 17.0435C22.2825 16.6597 21.8268 16.3552 21.3253 16.1475C20.8239 15.9398 20.2864 15.8329 19.7436 15.8329ZM36.2936 11.7496C36.2848 10.4625 36.0478 9.18718 35.5936 7.98289C35.259 7.10166 34.7414 6.30138 34.0749 5.63487C33.4084 4.96836 32.6081 4.45076 31.7269 4.11623C30.5226 3.662 29.2473 3.425 27.9602 3.41623C25.8102 3.29956 25.1769 3.29956 19.7436 3.29956C14.3102 3.29956 13.6769 3.29956 11.5269 3.41623C10.2398 3.425 8.96452 3.662 7.76024 4.11623C6.879 4.45076 6.07873 4.96836 5.41221 5.63487C4.7457 6.30138 4.2281 7.10166 3.89357 7.98289C3.43934 9.18718 3.20234 10.4625 3.19357 11.7496C3.0769 13.8996 3.0769 14.5329 3.0769 19.9662C3.0769 25.3996 3.0769 26.0329 3.19357 28.1829C3.21151 29.4745 3.44819 30.7537 3.89357 31.9662C4.22662 32.8434 4.74379 33.6391 5.41024 34.2996C6.07389 34.9701 6.87589 35.4877 7.76024 35.8162C8.96452 36.2705 10.2398 36.5075 11.5269 36.5162C13.6769 36.6329 14.3102 36.6329 19.7436 36.6329C25.1769 36.6329 25.8102 36.6329 27.9602 36.5162C29.2473 36.5075 30.5226 36.2705 31.7269 35.8162C32.6113 35.4877 33.4133 34.9701 34.0769 34.2996C34.7434 33.6391 35.2605 32.8434 35.5936 31.9662C36.0474 30.756 36.2843 29.4753 36.2936 28.1829C36.4102 26.0329 36.4102 25.3996 36.4102 19.9662C36.4102 14.5329 36.4102 13.8996 36.2936 11.7496ZM32.0602 25.0829C32.0068 26.1114 31.7873 27.1245 31.4102 28.0829C31.0867 28.8824 30.6057 29.6086 29.9958 30.2185C29.386 30.8283 28.6597 31.3093 27.8602 31.6329C26.8928 31.9889 25.874 32.1859 24.8436 32.2162H14.6436C13.6131 32.1859 12.5944 31.9889 11.6269 31.6329C10.8004 31.3258 10.054 30.8358 9.44357 30.1996C8.83968 29.6016 8.37331 28.8793 8.0769 28.0829C7.7195 27.1164 7.52792 26.0965 7.51024 25.0662V14.8662C7.52792 13.8359 7.7195 12.816 8.0769 11.8496C8.38404 11.0231 8.87403 10.2767 9.51024 9.66623C10.1108 9.0656 10.8323 8.59972 11.6269 8.29956C12.5944 7.94357 13.6131 7.74658 14.6436 7.71623H24.8436C25.874 7.74658 26.8928 7.94357 27.8602 8.29956C28.6867 8.6067 29.4331 9.09668 30.0436 9.73289C30.6475 10.3308 31.1138 11.0531 31.4102 11.8496C31.7662 12.817 31.9632 13.8358 31.9936 14.8662V19.9662C31.9936 23.3996 32.1102 23.7496 32.0602 25.0662V25.0829ZM29.3936 12.6829C29.1951 12.1445 28.8823 11.6556 28.4765 11.2499C28.0708 10.8442 27.5819 10.5313 27.0436 10.3329C26.3044 10.0767 25.5258 9.95254 24.7436 9.96623H14.7436C13.9573 9.97391 13.1787 10.1206 12.4436 10.3996C11.9135 10.589 11.4297 10.8891 11.0245 11.2799C10.6194 11.6707 10.302 12.1433 10.0936 12.6662C9.85153 13.4085 9.73329 14.1856 9.74357 14.9662V24.9662C9.76009 25.7516 9.90652 26.5287 10.1769 27.2662C10.3753 27.8046 10.6882 28.2935 11.0939 28.6992C11.4996 29.1049 11.9885 29.4178 12.5269 29.6162C13.238 29.8778 13.9863 30.024 14.7436 30.0496H24.7436C25.5298 30.0419 26.3085 29.8952 27.0436 29.6162C27.5819 29.4178 28.0708 29.1049 28.4765 28.6992C28.8823 28.2935 29.1951 27.8046 29.3936 27.2662C29.6725 26.5311 29.8192 25.7524 29.8269 24.9662V14.9662C29.8274 14.1792 29.6804 13.3991 29.3936 12.6662V12.6829ZM19.7436 26.3329C18.9083 26.3329 18.0812 26.1681 17.3097 25.8479C16.5382 25.5278 15.8374 25.0586 15.2475 24.4671C14.6577 23.8757 14.1903 23.1737 13.8721 22.4014C13.554 21.629 13.3914 20.8015 13.3936 19.9662C13.3936 18.7063 13.7674 17.4747 14.4677 16.4274C15.168 15.38 16.1634 14.564 17.3277 14.0826C18.492 13.6012 19.773 13.4761 21.0085 13.7231C22.2439 13.9702 23.3783 14.5782 24.268 15.4702C25.1578 16.3623 25.7628 17.4983 26.0066 18.7344C26.2504 19.9705 26.1219 21.2512 25.6375 22.4142C25.153 23.5773 24.3344 24.5705 23.2852 25.268C22.236 25.9656 21.0035 26.3362 19.7436 26.3329ZM26.4102 14.8496C26.0418 14.8106 25.7008 14.6366 25.453 14.3612C25.2052 14.0858 25.0681 13.7284 25.0681 13.3579C25.0681 12.9874 25.2052 12.63 25.453 12.3546C25.7008 12.0792 26.0418 11.9052 26.4102 11.8662C26.7787 11.9052 27.1196 12.0792 27.3674 12.3546C27.6152 12.63 27.7523 12.9874 27.7523 13.3579C27.7523 13.7284 27.6152 14.0858 27.3674 14.3612C27.1196 14.6366 26.7787 14.8106 26.4102 14.8496Z" fill="#217D33" fill-opacity="0.11"/>
</svg>
