<svg width="278" height="282" viewBox="0 0 278 282" fill="none" xmlns="http://www.w3.org/2000/svg">
<path opacity="0.7" d="M24.5459 87.5907C24.5459 87.5907 6.84672 133.299 31.7195 179.324C56.5922 225.349 107.823 249.664 148.827 270.454C189.831 291.245 232.409 281.12 252.641 247.067C272.874 213.015 245.125 188.707 245.087 140.149C245.049 91.5901 252.356 78.7348 226.042 37.7118C199.728 -3.31107 135.223 -12.3955 86.4421 18.032C37.6615 48.4596 24.5459 87.5907 24.5459 87.5907Z" fill="white"/>
<path d="M32.2846 81.7692C50.5805 48.085 96.6059 8.76344 159.753 25.1421C222.9 41.5208 265.554 76.17 258.565 136.454C251.575 196.737 214.837 246.826 135.686 248.292C56.5353 249.759 -7.8368 155.632 32.2846 81.7692Z" fill="#92E3A9"/>
<path opacity="0.7" d="M32.2846 81.7692C50.5805 48.085 96.6059 8.76344 159.753 25.1421C222.9 41.5208 265.554 76.17 258.565 136.454C251.575 196.737 214.837 246.826 135.686 248.292C56.5353 249.759 -7.8368 155.632 32.2846 81.7692Z" fill="white"/>
<path opacity="0.5" d="M127.167 87.0572C127.167 87.0572 135.813 77.1412 148.427 77.1412C148.427 77.1412 148.846 69.447 157.455 67.7837C166.063 66.1204 167.732 73.8083 167.732 73.8083C167.732 73.8083 174.081 70.431 182.638 73.8083C191.196 77.1856 189.444 87.0255 189.444 87.0255C189.444 87.0255 214.088 86.2256 218.316 90.7393H107.569C107.569 90.7393 109.804 85.2162 127.167 87.0572Z" stroke="#263238" stroke-linecap="round" stroke-linejoin="round"/>
<path d="M127.167 87.0572C127.167 87.0572 135.813 77.1412 148.427 77.1412C148.427 77.1412 148.846 69.447 157.455 67.7837C166.063 66.1204 167.732 73.8083 167.732 73.8083C167.732 73.8083 174.081 70.431 182.638 73.8083C191.196 77.1856 189.444 87.0255 189.444 87.0255C189.444 87.0255 214.088 86.2256 218.316 90.7393H107.569C107.569 90.7393 109.804 85.2162 127.167 87.0572Z" stroke="#263238" stroke-linecap="round" stroke-linejoin="round"/>
<path opacity="0.5" d="M198.617 28.2655C198.617 28.2655 191.716 20.3618 181.661 20.3618C181.661 20.3618 181.324 14.223 174.462 12.8962C167.599 11.5694 166.26 17.7019 166.26 17.7019C166.26 17.7019 161.181 15.0102 154.376 17.7019C147.57 20.3936 148.941 28.2465 148.941 28.2465C148.941 28.2465 129.262 27.6116 125.916 31.2048H214.247C214.247 31.2048 212.463 26.7991 198.617 28.2655Z" stroke="#263238" stroke-linecap="round" stroke-linejoin="round"/>
<path d="M198.617 28.2655C198.617 28.2655 191.716 20.3618 181.661 20.3618C181.661 20.3618 181.324 14.223 174.462 12.8962C167.599 11.5694 166.26 17.7019 166.26 17.7019C166.26 17.7019 161.181 15.0102 154.376 17.7019C147.57 20.3936 148.941 28.2465 148.941 28.2465C148.941 28.2465 129.262 27.6116 125.916 31.2048H214.247C214.247 31.2048 212.463 26.7991 198.617 28.2655Z" stroke="#263238" stroke-linecap="round" stroke-linejoin="round"/>
<path opacity="0.5" d="M38.4932 55.7348C38.4932 55.7348 42.5878 51.0371 48.568 51.0371C48.6805 49.9252 49.1626 48.8832 49.9371 48.0777C50.7116 47.2721 51.7339 46.7494 52.8404 46.5932C56.916 45.806 57.7096 49.4436 57.7096 49.4436C58.8238 48.9614 60.0251 48.7127 61.2392 48.7127C62.4534 48.7127 63.6546 48.9614 64.7689 49.4436C68.8191 51.0434 68.0002 55.7094 68.0002 55.7094C68.0002 55.7094 79.6684 55.3285 81.6745 57.4679H29.2119C29.2119 57.4679 30.2657 54.8588 38.4932 55.7348Z" stroke="#263238" stroke-linecap="round" stroke-linejoin="round"/>
<path d="M38.4932 55.7348C38.4932 55.7348 42.5878 51.0371 48.568 51.0371C48.6805 49.9252 49.1626 48.8832 49.9371 48.0777C50.7116 47.2721 51.7339 46.7494 52.8404 46.5932C56.916 45.806 57.7096 49.4436 57.7096 49.4436C58.8238 48.9614 60.0251 48.7127 61.2392 48.7127C62.4534 48.7127 63.6546 48.9614 64.7689 49.4436C68.8191 51.0434 68.0002 55.7094 68.0002 55.7094C68.0002 55.7094 79.6684 55.3285 81.6745 57.4679H29.2119C29.2119 57.4679 30.2657 54.8588 38.4932 55.7348Z" stroke="#263238" stroke-linecap="round" stroke-linejoin="round"/>
<path opacity="0.5" d="M101.227 164.297C101.227 164.297 105.322 159.6 111.302 159.6C111.414 158.487 111.895 157.445 112.67 156.639C113.445 155.833 114.468 155.311 115.575 155.156C119.65 154.381 120.45 158 120.45 158C121.564 157.518 122.766 157.269 123.98 157.269C125.194 157.269 126.395 157.518 127.509 158C131.56 159.593 130.741 164.266 130.741 164.266C130.741 164.266 142.409 163.885 144.415 166.024H91.946C91.946 166.024 92.9999 163.421 101.227 164.297Z" stroke="#263238" stroke-linecap="round" stroke-linejoin="round"/>
<path d="M101.227 164.297C101.227 164.297 105.322 159.6 111.302 159.6C111.414 158.487 111.895 157.445 112.67 156.639C113.445 155.833 114.468 155.311 115.575 155.156C119.65 154.381 120.45 158 120.45 158C121.564 157.518 122.766 157.269 123.98 157.269C125.194 157.269 126.395 157.518 127.509 158C131.56 159.593 130.741 164.266 130.741 164.266C130.741 164.266 142.409 163.885 144.415 166.024H91.946C91.946 166.024 92.9999 163.421 101.227 164.297Z" stroke="#263238" stroke-linecap="round" stroke-linejoin="round"/>
<path d="M54.053 104.75L53.9895 94.847C53.9661 94.5052 53.8138 94.1851 53.5634 93.9513C53.3129 93.7174 52.9831 93.5874 52.6405 93.5874C52.2979 93.5874 51.9681 93.7174 51.7177 93.9513C51.4673 94.1851 51.315 94.5052 51.2915 94.847V98.091" stroke="#263238" stroke-linecap="round" stroke-linejoin="round"/>
<path d="M51.2153 107.397L51.1899 111.035" stroke="#263238" stroke-linecap="round" stroke-linejoin="round"/>
<path d="M54.6182 192.719L54.1167 114.768" stroke="#263238" stroke-linecap="round" stroke-linejoin="round"/>
<path d="M51.1456 117.885L50.6694 192.719" stroke="#263238" stroke-linecap="round" stroke-linejoin="round"/>
<path d="M86.8041 111.657L57.9763 105.506L56.3892 107.74L55.2402 107.62L43.0451 78.4173C42.962 78.2168 42.8049 78.0559 42.6064 77.9681C42.4079 77.8803 42.1832 77.8724 41.979 77.9459C41.7747 78.0194 41.6066 78.1688 41.5096 78.363C41.4126 78.5571 41.3941 78.7812 41.458 78.9887L49.8886 107.239L52.612 107.55L53.0437 108.585L33.7194 133.705C33.601 133.876 33.5501 134.085 33.5763 134.291C33.6026 134.498 33.7041 134.687 33.8615 134.824C34.019 134.96 34.2211 135.033 34.4292 135.029C34.6373 135.025 34.8366 134.945 34.989 134.803L55.3418 113.473L54.2626 110.933L54.9799 110.007L86.5502 113.333C86.6602 113.35 86.7725 113.345 86.8805 113.318C86.9886 113.291 87.0903 113.244 87.1799 113.178C87.2695 113.111 87.3452 113.028 87.4027 112.933C87.4602 112.838 87.4984 112.732 87.5151 112.622C87.5318 112.512 87.5266 112.4 87.4999 112.292C87.4732 112.184 87.4255 112.082 87.3595 111.992C87.2934 111.903 87.2104 111.827 87.1151 111.77C87.0198 111.712 86.9141 111.674 86.8041 111.657V111.657Z" stroke="#263238" stroke-linecap="round" stroke-linejoin="round"/>
<path d="M54.618 109.455C55.0738 109.455 55.4433 109.085 55.4433 108.629C55.4433 108.173 55.0738 107.804 54.618 107.804C54.1622 107.804 53.7927 108.173 53.7927 108.629C53.7927 109.085 54.1622 109.455 54.618 109.455Z" stroke="#263238" stroke-linecap="round" stroke-linejoin="round"/>
<path d="M80.5954 138.987L80.5447 131.147C80.5447 130.864 80.4323 130.593 80.2323 130.393C80.0323 130.193 79.761 130.08 79.4781 130.08C79.1953 130.08 78.924 130.193 78.724 130.393C78.524 130.593 78.4116 130.864 78.4116 131.147V133.718" stroke="#263238" stroke-linecap="round" stroke-linejoin="round"/>
<path d="M78.3481 141.082L78.3291 143.951" stroke="#263238" stroke-linecap="round" stroke-linejoin="round"/>
<path d="M81.0398 208.571L80.6462 146.91" stroke="#263238" stroke-linecap="round" stroke-linejoin="round"/>
<path d="M78.2974 149.373L77.9165 208.571" stroke="#263238" stroke-linecap="round" stroke-linejoin="round"/>
<path d="M106.522 144.466L83.7126 139.59L82.4429 141.361L81.5288 141.266L71.8856 118.158C71.856 118.074 71.8091 117.998 71.7481 117.933C71.687 117.869 71.6131 117.818 71.5311 117.784C71.4492 117.75 71.361 117.733 71.2722 117.736C71.1835 117.738 71.0962 117.758 71.0159 117.796C70.8633 117.861 70.7397 117.98 70.6684 118.129C70.5971 118.279 70.5829 118.449 70.6287 118.609L77.3008 140.955L79.4529 141.203L79.7957 142.021L64.4962 161.879C64.3809 162.014 64.3238 162.189 64.3374 162.366C64.3511 162.542 64.4345 162.706 64.5692 162.822C64.7039 162.937 64.8789 162.994 65.0557 162.981C65.2325 162.967 65.3966 162.883 65.5119 162.749L81.6049 145.875L80.7543 143.882L81.3193 143.145L106.294 145.773C106.381 145.788 106.471 145.783 106.557 145.761C106.643 145.738 106.724 145.698 106.793 145.642C106.863 145.586 106.92 145.517 106.96 145.438C107.001 145.359 107.025 145.272 107.03 145.183C107.047 145.022 107.004 144.861 106.911 144.729C106.818 144.597 106.679 144.503 106.522 144.466Z" stroke="#263238" stroke-linecap="round" stroke-linejoin="round"/>
<path d="M81.7255 142.053C81.7255 142.179 81.6882 142.302 81.6185 142.406C81.5487 142.51 81.4496 142.592 81.3336 142.64C81.2176 142.688 81.0899 142.7 80.9668 142.676C80.8437 142.651 80.7305 142.591 80.6417 142.502C80.553 142.413 80.4925 142.3 80.468 142.177C80.4435 142.054 80.4561 141.926 80.5041 141.81C80.5522 141.694 80.6336 141.595 80.7379 141.525C80.8423 141.456 80.9651 141.418 81.0906 141.418C81.259 141.418 81.4205 141.485 81.5395 141.604C81.6586 141.723 81.7255 141.885 81.7255 142.053Z" stroke="#263238" stroke-linecap="round" stroke-linejoin="round"/>
<path d="M219.859 104.75L219.922 94.847C219.946 94.5052 220.098 94.1851 220.349 93.9513C220.599 93.7174 220.929 93.5874 221.271 93.5874C221.614 93.5874 221.944 93.7174 222.194 93.9513C222.445 94.1851 222.597 94.5052 222.62 94.847V98.091" stroke="#263238" stroke-linecap="round" stroke-linejoin="round"/>
<path d="M222.697 107.397L222.722 111.035" stroke="#263238" stroke-linecap="round" stroke-linejoin="round"/>
<path d="M219.294 192.719L219.795 114.768" stroke="#263238" stroke-linecap="round" stroke-linejoin="round"/>
<path d="M222.766 117.885L223.242 192.719" stroke="#263238" stroke-linecap="round" stroke-linejoin="round"/>
<path d="M187.108 111.657L215.935 105.506L217.523 107.741L218.672 107.62L230.867 78.4176C230.95 78.217 231.107 78.0562 231.305 77.9684C231.504 77.8806 231.729 77.8726 231.933 77.9462C232.137 78.0197 232.305 78.169 232.402 78.3632C232.499 78.5574 232.518 78.7815 232.454 78.9889L224.023 107.239L221.3 107.55L220.868 108.585L240.212 133.693C240.33 133.864 240.381 134.073 240.355 134.279C240.328 134.486 240.227 134.675 240.069 134.811C239.912 134.947 239.71 135.021 239.502 135.017C239.294 135.013 239.094 134.933 238.942 134.791L218.589 113.46L219.668 110.921L218.951 109.994L187.381 113.321C187.167 113.343 186.953 113.282 186.782 113.151C186.611 113.021 186.497 112.83 186.462 112.617C186.427 112.405 186.474 112.188 186.594 112.009C186.714 111.831 186.898 111.705 187.108 111.657V111.657Z" stroke="#263238" stroke-linecap="round" stroke-linejoin="round"/>
<path d="M219.294 109.455C219.75 109.455 220.119 109.085 220.119 108.629C220.119 108.173 219.75 107.804 219.294 107.804C218.838 107.804 218.469 108.173 218.469 108.629C218.469 109.085 218.838 109.455 219.294 109.455Z" stroke="#263238" stroke-linecap="round" stroke-linejoin="round"/>
<path d="M193.316 138.987L193.367 131.147C193.367 130.864 193.48 130.593 193.68 130.393C193.88 130.193 194.151 130.08 194.434 130.08C194.717 130.08 194.988 130.193 195.188 130.393C195.388 130.593 195.5 130.864 195.5 131.147V133.718" stroke="#263238" stroke-linecap="round" stroke-linejoin="round"/>
<path d="M195.564 141.082L195.583 143.951" stroke="#263238" stroke-linecap="round" stroke-linejoin="round"/>
<path d="M192.872 208.571L193.266 146.91" stroke="#263238" stroke-linecap="round" stroke-linejoin="round"/>
<path d="M195.615 149.373L195.995 208.571" stroke="#263238" stroke-linecap="round" stroke-linejoin="round"/>
<path d="M167.39 144.466L190.199 139.59L191.469 141.361L192.383 141.266L202.026 118.158C202.056 118.074 202.103 117.998 202.164 117.933C202.225 117.869 202.299 117.818 202.381 117.784C202.463 117.75 202.551 117.733 202.64 117.736C202.729 117.738 202.816 117.758 202.896 117.796C203.049 117.861 203.172 117.98 203.244 118.129C203.315 118.279 203.329 118.449 203.283 118.609L196.611 140.955L194.459 141.203L194.116 142.021L209.416 161.879C209.531 162.014 209.588 162.189 209.575 162.366C209.561 162.542 209.477 162.706 209.343 162.822C209.208 162.937 209.033 162.994 208.856 162.981C208.68 162.967 208.515 162.883 208.4 162.749L192.307 145.875L193.158 143.882L192.593 143.145L167.618 145.773C167.531 145.788 167.441 145.783 167.355 145.761C167.269 145.738 167.188 145.698 167.119 145.642C167.049 145.586 166.992 145.517 166.952 145.438C166.911 145.359 166.887 145.272 166.882 145.183C166.865 145.022 166.908 144.861 167.001 144.729C167.094 144.597 167.233 144.503 167.39 144.466V144.466Z" stroke="#263238" stroke-linecap="round" stroke-linejoin="round"/>
<path d="M192.218 142.053C192.218 142.179 192.256 142.302 192.325 142.406C192.395 142.51 192.494 142.592 192.61 142.64C192.726 142.688 192.854 142.7 192.977 142.676C193.1 142.651 193.213 142.591 193.302 142.502C193.391 142.413 193.451 142.3 193.476 142.177C193.5 142.054 193.488 141.926 193.44 141.81C193.392 141.694 193.31 141.595 193.206 141.525C193.101 141.456 192.979 141.418 192.853 141.418C192.685 141.418 192.523 141.485 192.404 141.604C192.285 141.723 192.218 141.885 192.218 142.053Z" stroke="#263238" stroke-linecap="round" stroke-linejoin="round"/>
<path d="M1 183.463C1 183.463 2.23158 186.713 6.07866 191.716C11.0494 198.229 20.4449 207.707 37.2871 216.798C66.9972 232.859 85.801 259.548 85.801 259.548L103.087 204.451C103.087 204.451 95.3997 203.892 84.5821 196.198C77.199 191.011 68.3939 182.492 59.5951 168.64C37.833 134.416 15.0679 126.995 15.0679 126.995" fill="white"/>
<path opacity="0.4" d="M6.05957 191.716C11.0494 198.229 20.4449 207.707 37.287 216.798C66.9972 232.859 85.8009 259.548 85.8009 259.548L103.087 204.451C103.087 204.451 95.3996 203.892 84.5821 196.198C75.7261 195.957 57.3668 201.968 47.9903 211.027C47.9585 211.04 26.298 200.058 6.05957 191.716Z" fill="#92E3A9"/>
<path d="M63.22 203.574C63.22 203.574 73.7899 212.703 79.7256 213.002" stroke="#263238" stroke-linecap="round" stroke-linejoin="round"/>
<path d="M32.2083 214.157C39.7437 217.82 50.7962 221.915 54.8147 224.01" stroke="#263238" stroke-linecap="round" stroke-linejoin="round"/>
<path d="M61.106 171.109C63.15 175.333 65.5611 179.369 68.3113 183.171" stroke="#263238" stroke-linecap="round" stroke-linejoin="round"/>
<path d="M1 183.463C1 183.463 2.23158 186.713 6.07866 191.716C11.0494 198.229 20.4449 207.707 37.2871 216.798C66.9972 232.859 85.801 259.548 85.801 259.548L103.087 204.451C103.087 204.451 95.3997 203.892 84.5821 196.198C77.199 191.011 68.3939 182.492 59.5951 168.64C37.833 134.416 15.0679 126.995 15.0679 126.995" stroke="#263238" stroke-linecap="round" stroke-linejoin="round"/>
<path d="M277 178.384C277 178.384 275.768 181.635 271.921 186.637C266.931 193.151 257.536 202.629 240.725 211.719C211.015 227.781 192.212 254.469 192.212 254.469L174.925 199.372C174.925 199.372 182.613 198.813 193.43 191.119C200.782 185.901 209.581 177.4 218.386 163.548C240.148 129.325 262.919 121.903 262.919 121.903" fill="white"/>
<path opacity="0.4" d="M271.94 186.637C266.951 193.151 257.555 202.629 240.745 211.719C211.035 227.781 192.231 254.469 192.231 254.469L174.944 199.372C174.944 199.372 182.632 198.813 193.45 191.119C202.306 190.878 218.069 194.966 225.972 207.625C225.972 207.631 251.702 194.979 271.94 186.637Z" fill="#92E3A9"/>
<path d="M203.886 188.967C203.886 188.967 198.725 197.353 185.387 202.616" stroke="#263238" stroke-linecap="round" stroke-linejoin="round"/>
<path d="M243.938 210.393C240.764 211.719 227.61 215.852 224.595 217.966" stroke="#263238" stroke-linecap="round" stroke-linejoin="round"/>
<path d="M218.57 169.852C218.57 169.852 221.573 159.06 225.972 152.521" stroke="#263238" stroke-linecap="round" stroke-linejoin="round"/>
<path d="M277 178.384C277 178.384 275.768 181.635 271.921 186.637C266.931 193.151 257.536 202.629 240.725 211.719C211.015 227.781 192.212 254.469 192.212 254.469L174.925 199.372C174.925 199.372 182.613 198.813 193.43 191.119C200.782 185.901 209.581 177.4 218.386 163.548C240.148 129.325 262.919 121.903 262.919 121.903" stroke="#263238" stroke-linecap="round" stroke-linejoin="round"/>
<path d="M117.162 217.636L98.6056 219.864C98.6056 219.864 85.6486 223.813 82.5189 226.625C79.3892 229.437 75.2755 236.979 75.2755 236.979C75.2755 236.979 70.7173 237.843 68.3812 236.979C68.119 236.907 67.8747 236.781 67.6638 236.61C67.4529 236.438 67.2799 236.225 67.1559 235.983C66.8581 235.274 66.6451 234.532 66.5211 233.773C66.19 231.398 66.1559 228.99 66.4195 226.606C66.4195 226.606 63.3723 222.251 63.2454 220.467C63.1184 218.683 63.7659 211.332 65.6069 209.275C65.6814 209.187 65.7643 209.106 65.8545 209.034C67.886 207.409 79.4781 202.254 79.4781 202.254C79.4781 202.254 82.0872 198.337 88.4673 197.175C94.8474 196.013 108.617 200.076 108.617 200.076L110.617 204.177L117.162 217.636Z" fill="white"/>
<path opacity="0.4" d="M66.5338 233.793C66.2027 231.417 66.1686 229.009 66.4322 226.625C66.4322 226.625 63.385 222.27 63.2581 220.487C63.1311 218.703 63.7786 211.351 65.6196 209.294C63.4866 213.548 63.9119 220.029 66.8893 217.966C70.5142 215.427 74.2534 220.594 74.2534 220.594C70.2984 222.645 67.4035 229.635 66.5338 233.793Z" fill="#92E3A9"/>
<path opacity="0.4" d="M117.162 217.636L98.6055 219.864C98.6055 219.864 85.6486 223.813 82.5188 226.625C79.3891 229.437 75.2754 236.979 75.2754 236.979C75.2754 236.979 70.7173 237.843 68.3811 236.979C70.5268 236.344 73.6375 233.932 74.2279 230.701C75.0659 226.105 82.8045 221.966 82.5125 218.404C82.2205 214.843 76.2848 209.034 76.2848 209.034C79.7637 208.279 82.8997 210.443 82.8997 210.443C81.5528 208.818 79.9564 207.417 78.1702 206.291C84.982 205.555 86.2897 210.373 86.2897 210.373C88.1942 210.799 92.6381 209.034 92.6381 209.034C92.6608 207.309 93.15 205.622 94.0537 204.152L96.263 207.612C98.669 207.612 106.744 205.314 110.585 204.177L117.162 217.636Z" fill="#92E3A9"/>
<path d="M67.156 236.008C68.1527 238.325 75.2692 236.986 75.2692 236.986C75.2692 236.986 79.3892 229.438 82.519 226.625C85.6487 223.813 98.6056 219.858 98.6056 219.858L117.162 217.636L108.611 200.096C108.611 200.096 94.8411 196.039 88.461 197.201C82.0809 198.363 79.4718 202.28 79.4718 202.28C79.4718 202.28 67.8797 207.428 65.8482 209.06C63.8168 210.691 63.0931 218.703 63.2391 220.487C63.3851 222.27 66.4132 226.625 66.4132 226.625C66.4132 226.625 65.7022 232.637 67.156 236.008Z" stroke="#263238" stroke-linecap="round" stroke-linejoin="round"/>
<path d="M67.4416 234.446C67.4416 234.446 68.6033 227.927 74.1137 225.559C74.1137 225.559 74.6914 221.674 73.244 219.883C71.7966 218.093 67.5876 221.572 67.4416 225.559C67.2956 229.546 67.4416 234.446 67.4416 234.446Z" stroke="#263238" stroke-linecap="round" stroke-linejoin="round"/>
<path d="M79.4717 210.393C79.4717 210.393 89.1402 214.735 84.0869 225.533" stroke="#263238" stroke-linecap="round" stroke-linejoin="round"/>
<path d="M82.8997 208.361C82.8997 208.361 91.1144 215.446 85.0771 224.365" stroke="#263238" stroke-linecap="round" stroke-linejoin="round"/>
<path d="M94.0792 206.92C93.6165 210.052 93.6165 213.234 94.0792 216.366" stroke="#263238" stroke-linecap="round" stroke-linejoin="round"/>
<path d="M69.765 217.966C69.765 217.966 68.0255 218.798 66.8638 223.146" stroke="#263238" stroke-linecap="round" stroke-linejoin="round"/>
<path d="M68.3112 210.393C68.3112 210.393 65.848 210.729 64.5466 215.605" stroke="#263238" stroke-linecap="round" stroke-linejoin="round"/>
<path d="M211.092 217.636C209.06 218.937 207.987 221.673 207.987 221.673C207.987 221.673 208.368 226.625 207.987 227.927C207.606 229.228 204.851 231.698 202.674 230.32C200.496 228.942 199.379 223.87 193.742 221.673L158.477 207.631C159.672 205.94 161.1 204.424 162.717 203.13C165.319 200.983 168.222 199.23 171.332 197.924C180.499 194.007 191.647 191.544 197.1 193.284C200.16 194.268 203.848 197.689 206.692 201.06C208.889 203.657 210.577 206.241 211.092 207.631C212.247 210.824 213.136 216.328 211.092 217.636Z" fill="white"/>
<path opacity="0.4" d="M211.092 217.636C209.06 218.937 207.987 221.673 207.987 221.673C207.987 221.673 208.368 226.625 207.987 227.927C207.606 229.228 204.851 231.698 202.674 230.32C200.496 228.942 199.379 223.87 193.742 221.673L158.477 207.631C159.672 205.94 161.1 204.424 162.717 203.13C167.548 203.13 173.909 203.587 179.121 205.746C179.121 205.746 178.766 201.829 180.797 202.273C180.797 202.273 180.283 198.312 182.473 198.115C184.663 197.918 184.149 199.385 184.149 199.385C184.149 199.385 184.149 203.378 185.92 204.184C187.692 204.99 186.65 199.48 190.053 198.712C190.053 198.712 190.244 204.92 192.237 206.933C192.237 206.933 189.971 213.478 193.062 216.722C196.154 219.966 201.95 223.832 203.22 223.705C204.489 223.578 199.804 217.928 199.804 217.928C199.804 217.928 199.893 212.17 203.448 211.04C207.003 209.91 210.095 212.805 210.095 212.805C209.557 208.744 208.419 204.786 206.718 201.06C208.914 203.657 210.603 206.241 211.117 207.631C212.247 210.824 213.136 216.328 211.092 217.636Z" fill="#92E3A9"/>
<path d="M158.47 207.631C158.47 207.631 162.159 201.835 171.332 197.924C180.505 194.014 191.647 191.544 197.1 193.284C202.553 195.023 209.93 204.444 211.066 207.631C212.202 210.818 213.098 216.328 211.066 217.636C209.035 218.944 207.968 221.667 207.968 221.667C207.968 221.667 208.349 226.625 207.968 227.927C207.587 229.228 204.832 231.698 202.661 230.32C200.49 228.942 199.36 223.87 193.722 221.667" stroke="#263238" stroke-linecap="round" stroke-linejoin="round"/>
<path d="M199.804 217.928C199.804 217.928 200.242 212.272 202.978 212.564C205.714 212.856 207.797 218.798 207.994 225.533C207.987 225.533 205.003 219.667 199.804 217.928Z" stroke="#263238" stroke-linecap="round" stroke-linejoin="round"/>
<path d="M190.796 219.858C190.796 219.858 187.622 209.663 194.415 205.752" stroke="#263238" stroke-linecap="round" stroke-linejoin="round"/>
<path d="M190.047 200.096C190.047 200.096 187.419 208.844 190.047 213.745C190.047 213.745 183.838 209.085 179.128 211.11" stroke="#263238" stroke-linecap="round" stroke-linejoin="round"/>
<path d="M184.568 211.04C184.568 211.04 183.673 207.631 183.819 205.752C183.965 203.873 181.451 201.689 182.416 199.372" stroke="#263238" stroke-linecap="round" stroke-linejoin="round"/>
<path d="M180.791 203.574C180.791 203.574 182.867 208.298 184.149 209.053" stroke="#263238" stroke-linecap="round" stroke-linejoin="round"/>
<path d="M185.387 214.735C185.387 214.735 188.003 213.579 190.053 214.735" stroke="#263238" stroke-linecap="round" stroke-linejoin="round"/>
<path d="M205.581 206.317C205.581 206.317 209.784 205.962 210.8 214.481" stroke="#263238" stroke-linecap="round" stroke-linejoin="round"/>
<path d="M143.799 145.151C143.799 145.151 133.686 139.323 141.971 118.266C150.256 97.2084 175.16 90.822 180.791 84.4736C180.791 84.4736 178.518 149.144 143.799 145.151Z" fill="#92E3A9"/>
<path opacity="0.3" d="M176.379 90.5171C173.535 95.9195 164.781 102.738 155.163 119.142C150.46 127.347 146.545 135.979 143.469 144.922C141.939 143.792 135.75 138.079 140.435 122.703C140.619 128.163 142.555 131.229 142.555 131.229C141.946 109.994 176.379 90.5171 176.379 90.5171Z" fill="black" fill-opacity="0.7"/>
<path d="M143.799 145.151C143.799 145.151 133.686 139.323 141.971 118.266C150.256 97.2084 175.16 90.822 180.791 84.4736C180.791 84.4736 178.518 149.144 143.799 145.151Z" stroke="#263238" stroke-linecap="round" stroke-linejoin="round"/>
<path d="M144.732 119.142C144.732 119.142 143.158 130.397 146.777 137.73L148.586 133.038C148.586 133.038 161.143 132.702 167.669 124.665" stroke="#263238" stroke-linecap="round" stroke-linejoin="round"/>
<path d="M151.601 109.6C151.601 109.6 148.751 120.145 150.764 127.515L151.601 123.833C151.601 123.833 167.339 119.757 170.685 114.901" stroke="#263238" stroke-linecap="round" stroke-linejoin="round"/>
<path d="M159.753 102.769C159.753 102.769 155.944 110.635 156.033 117.167L157.893 113.993C157.893 113.993 171.186 111.454 173.535 107.296" stroke="#263238" stroke-linecap="round" stroke-linejoin="round"/>
<path d="M167.669 95.9766C164.895 99.7856 161.6 108.388 161.6 108.388L164.635 104.934C164.635 104.934 172.138 102.979 174.944 99.3158" stroke="#263238" stroke-linecap="round" stroke-linejoin="round"/>
<path d="M131.744 200.692C131.744 200.692 136.061 124.664 172.697 95.9446C172.697 95.9446 138.708 124.023 136.956 200.692H131.744Z" fill="#92E3A9"/>
<path opacity="0.3" d="M131.744 200.692C131.744 200.692 136.061 124.664 172.697 95.9446C172.697 95.9446 138.708 124.023 136.956 200.692H131.744Z" fill="black" fill-opacity="0.7"/>
<path d="M131.744 200.692C131.744 200.692 136.061 124.664 172.697 95.9446C172.697 95.9446 138.708 124.023 136.956 200.692H131.744Z" stroke="#263238" stroke-linecap="round" stroke-linejoin="round"/>
<path d="M128.316 121.44C128.316 121.44 137.362 116.228 129.947 97.3924C122.532 78.5569 100.262 72.8434 95.2283 67.168C95.2283 67.168 97.2597 124.989 128.316 121.44Z" fill="#92E3A9"/>
<path opacity="0.3" d="M129.973 97.3794C129.578 96.3622 129.1 95.3792 128.544 94.4402C127.408 92.5357 130.271 98.1793 130.328 102.737C130.369 103.877 130.151 105.012 129.69 106.055C129.23 107.099 128.538 108.024 127.668 108.762C127.097 105.778 126.786 102.649 125.357 99.9632C118.082 86.2254 101.094 73.7763 98.396 71.7258C98.688 72.094 107.988 83.7877 113.492 90.5169C116.444 94.1418 118.406 98.7126 120.349 102.922C122.812 108.273 125.021 113.714 127.211 119.199C127.516 119.967 127.846 120.729 128.132 121.49C130.595 119.954 131.941 117.097 132.512 114.247C133.451 109.378 132.334 104.344 130.779 99.6458C130.531 98.8776 130.271 98.1222 129.973 97.3794Z" fill="black" fill-opacity="0.7"/>
<path d="M128.316 121.44C128.316 121.44 137.362 116.228 129.947 97.3924C122.532 78.5569 100.262 72.8434 95.2283 67.168C95.2283 67.168 97.2597 124.989 128.316 121.44Z" stroke="#263238" stroke-linecap="round" stroke-linejoin="round"/>
<path d="M127.478 98.1794C127.478 98.1794 128.887 108.242 125.649 114.799L124.031 110.603C124.031 110.603 112.8 110.305 106.96 103.118" stroke="#263238" stroke-linecap="round" stroke-linejoin="round"/>
<path d="M121.339 89.6411C121.339 89.6411 123.878 99.0747 122.088 105.664L121.339 102.37C121.339 102.37 107.258 98.7256 104.268 94.3833" stroke="#263238" stroke-linecap="round" stroke-linejoin="round"/>
<path d="M114.045 83.5022C114.045 83.5022 117.447 90.5425 117.371 96.383L115.708 93.5326C115.708 93.5326 103.818 91.2853 101.742 87.5461" stroke="#263238" stroke-linecap="round" stroke-linejoin="round"/>
<path d="M106.96 77.4521C109.448 80.8866 112.394 88.5554 112.394 88.5554L109.658 85.4701C109.658 85.4701 102.948 83.718 100.44 80.4422" stroke="#263238" stroke-linecap="round" stroke-linejoin="round"/>
<path d="M137.591 168.036C137.591 168.036 135.242 103.118 102.478 77.4077C102.478 77.4077 134.023 105.664 134.486 178.378C134.486 178.378 135.515 178.581 136.067 176.905" fill="#92E3A9"/>
<path opacity="0.3" d="M137.591 168.036C137.591 168.036 135.242 103.118 102.478 77.4077C102.478 77.4077 134.023 105.664 134.486 178.378C134.486 178.378 135.515 178.581 136.067 176.905" fill="black" fill-opacity="0.7"/>
<path d="M137.591 168.036C137.591 168.036 135.242 103.118 102.478 77.4077C102.478 77.4077 134.023 105.664 134.486 178.378C134.486 178.378 135.515 178.581 136.067 176.905" stroke="#263238" stroke-linecap="round" stroke-linejoin="round"/>
<path d="M84.6139 227.006C84.6139 227.006 82.4301 225.28 84.6139 219.884C86.2899 215.751 91.7431 215.954 92.0414 211.631C94.2761 211.91 96.0599 210.431 97.2153 208.622C98.3707 206.812 99.3039 204.641 101.234 203.689C101.869 203.397 102.503 203.238 103.088 202.927C105.379 201.708 106.173 198.414 108.649 197.664C110.109 197.22 111.823 197.823 113.162 197.144C114.502 196.465 115.162 194.605 116.616 193.97C117.24 193.779 117.876 193.633 118.52 193.532C121.091 192.859 122.748 189.723 125.408 189.793C126.176 189.824 127.002 190.135 127.687 189.793C128.227 189.526 128.551 188.91 129.109 188.694C129.59 188.58 130.093 188.6 130.563 188.751C132.048 189.071 133.595 188.943 135.007 188.383C136.277 187.805 136.569 186.123 137.343 185.742C140.422 184.225 143.876 190.135 145.659 191.615C146.701 192.484 147.875 190.262 149.227 190.313C150.459 190.364 151.087 192.268 152.306 192.116C151.741 192.56 152.065 193.544 152.687 193.906C153.352 194.185 154.068 194.321 154.788 194.306C156.54 194.49 158.121 195.411 159.645 196.306C159.918 196.438 160.157 196.631 160.343 196.871C160.527 197.15 160.565 197.506 160.756 197.779C161.156 198.344 162.083 198.414 162.381 199.01C162.475 199.333 162.53 199.665 162.546 200.001C162.743 200.94 163.854 201.366 164.812 201.435C165.771 201.505 166.799 201.391 167.618 201.899C168.185 202.365 168.7 202.891 169.155 203.467C171.059 205.314 173.268 205.213 175.027 207.549C176.868 209.993 178.112 212.666 180.74 214.43C185.184 217.42 186.454 221.636 187.666 225.553C188.879 229.47 171.656 239.221 136.88 241.716C102.104 244.21 84.1568 229.647 84.6139 227.006Z" fill="#263238"/>
<path opacity="0.4" d="M117.06 199.899C117.835 200.102 118.965 200.051 119.06 199.264C119.044 199.085 119.056 198.905 119.098 198.731C119.301 198.261 120.025 198.623 120.526 198.509C120.901 198.42 121.129 198.052 121.402 197.785C121.752 197.464 122.203 197.275 122.678 197.252C123.152 197.228 123.619 197.372 123.999 197.658C124.437 198.013 124.729 198.559 125.23 198.813C126.17 199.283 127.713 198.756 128.062 199.74" stroke="white" stroke-linecap="round" stroke-linejoin="round"/>
<path opacity="0.4" d="M130.449 204.857C130.666 204.996 130.912 205.084 131.168 205.115C131.424 205.146 131.684 205.118 131.928 205.035C132.172 204.951 132.395 204.814 132.578 204.632C132.762 204.451 132.902 204.23 132.988 203.987C133.058 203.733 133.083 203.435 133.299 203.276C133.629 203.041 134.074 203.359 134.48 203.397C135.286 203.479 135.75 202.54 136.276 201.937C136.596 201.579 137.005 201.313 137.462 201.166C137.918 201.019 138.406 200.996 138.874 201.1C139.342 201.205 139.774 201.432 140.126 201.758C140.477 202.085 140.735 202.499 140.873 202.959L145.659 204.228" stroke="white" stroke-linecap="round" stroke-linejoin="round"/>
<path opacity="0.4" d="M138.638 194.776C139.458 194.513 140.317 194.391 141.178 194.414C141.064 194.147 141.04 193.851 141.107 193.569C141.174 193.287 141.33 193.034 141.551 192.847C141.772 192.659 142.047 192.548 142.337 192.528C142.626 192.509 142.914 192.582 143.158 192.738C143.361 192.553 143.602 192.413 143.863 192.328C144.124 192.242 144.401 192.214 144.674 192.244C144.947 192.274 145.211 192.362 145.448 192.502C145.684 192.642 145.889 192.83 146.047 193.055L146.237 193.855C147.487 194.27 148.648 194.916 149.659 195.76" stroke="white" stroke-linecap="round" stroke-linejoin="round"/>
<path opacity="0.4" d="M151.925 200.743L153.195 201.118C152.985 200.788 153.379 200.381 153.766 200.305C154.153 200.306 154.538 200.239 154.902 200.108C155.283 199.88 155.398 199.397 155.645 199.029C155.893 198.661 156.515 198.451 156.724 198.839C156.674 198.432 157.124 198.102 157.537 198.115C157.951 198.169 158.341 198.341 158.661 198.61L161.911 200.87" stroke="white" stroke-linecap="round" stroke-linejoin="round"/>
<path d="M74.0121 236.979C74.0121 236.979 77.6877 230.485 82.5188 226.625C87.3499 222.765 90.8288 217.807 95.0822 212.551C99.3355 207.294 105.519 200.629 108.61 200.095C111.702 199.562 118.66 200.559 119.434 206.92C119.434 206.92 124.164 201.206 130.785 205.206C137.406 209.205 134.118 216.766 134.118 216.766C134.118 216.766 136.53 215.801 138.029 216.766C139.527 217.731 143.793 268.892 143.793 268.892C141.35 269.505 138.957 270.299 136.632 271.267C132.963 272.809 128.322 273.006 125.205 271.267C125.205 271.267 119.409 272.765 115.543 272.498C111.677 272.232 101.24 272.041 97.5707 271.07C93.5288 269.901 89.5935 268.391 85.8072 266.556C83.0459 264.981 80.7707 262.678 79.2304 259.897C78.075 257.548 75.9483 256.78 72.6599 252.818C69.3714 248.857 74.0121 236.979 74.0121 236.979Z" fill="white"/>
<path opacity="0.4" d="M138.029 216.766C136.581 215.84 134.283 216.703 134.124 216.766C134.411 216.045 134.624 215.296 134.759 214.532L130.792 222.893C130.792 222.893 124.653 230.879 122.456 234.459C120.26 238.04 122.139 238.414 119.441 244.115C116.743 249.816 112.794 260.722 108.617 261.605C104.44 262.487 95.5647 259.453 93.9142 255.18C92.2636 250.908 96.244 247.892 101.126 241.703C106.008 235.513 108.033 233.196 107.646 230.326C107.258 227.457 117.168 210.164 117.803 209.11C117.543 209.453 116.013 211.504 114.096 214.037C114.953 212.434 115.692 210.771 116.305 209.059L107.169 205.212C107.169 205.212 98.1866 214.773 103.018 218.43C105.671 220.442 108.299 220.474 110.744 218.43C108.839 220.925 106.966 223.242 105.919 224.384C103.018 227.559 102.434 231.082 101.132 233.164C99.8308 235.246 94.6633 243.893 90.2067 247.016C85.7502 250.14 83.1157 250.997 79.4844 249.041C77.0086 247.702 75.4723 240.35 74.7359 235.824C74.2724 236.554 74.0248 236.998 74.0248 236.998C74.0248 236.998 69.3906 248.87 72.679 252.831C75.9674 256.793 78.0878 257.561 79.2432 259.91C80.7854 262.679 83.0523 264.977 85.801 266.556C89.599 268.391 93.5447 269.903 97.5962 271.076C101.266 272.035 111.702 272.232 115.568 272.498C119.434 272.765 125.23 271.267 125.23 271.267C128.322 273.006 132.956 272.816 136.657 271.267C138.781 270.388 140.958 269.648 143.177 269.051C143.38 268.791 143.571 268.518 143.774 268.245C143.247 262.335 139.432 217.674 138.029 216.766Z" fill="#92E3A9"/>
<path opacity="0.4" d="M122.672 209.053C122.672 209.053 113.467 219.712 119.815 224.365C126.164 229.019 133.039 220.15 133.337 212.805L122.672 209.053Z" fill="#92E3A9"/>
<path d="M143.799 268.892L143.164 269.051C140.946 269.648 138.768 270.388 136.645 271.267C132.969 272.816 128.335 273.006 125.218 271.267C125.218 271.267 119.422 272.771 115.556 272.498C111.689 272.225 101.253 272.035 97.5835 271.076C93.5363 269.902 89.5949 268.39 85.801 266.556C83.0451 264.973 80.7733 262.669 79.2305 259.89C78.0751 257.542 75.9484 256.78 72.6663 252.812C69.3842 248.844 74.0121 236.979 74.0121 236.979C74.0121 236.979 74.2597 236.535 74.7231 235.805C75.9928 233.754 78.9511 229.457 82.5189 226.625C87.35 222.753 90.8288 217.807 95.0822 212.551C99.3356 207.294 105.519 200.629 108.611 200.095C111.702 199.562 118.66 200.559 119.434 206.92C119.434 206.92 124.164 201.206 130.785 205.206C135.121 207.84 135.229 211.986 134.753 214.525C134.618 215.29 134.405 216.038 134.118 216.76C134.277 216.703 136.575 215.839 138.022 216.76C139.47 217.68 143.241 262.328 143.736 268.238C143.774 268.664 143.799 268.892 143.799 268.892Z" stroke="#263238" stroke-linecap="round" stroke-linejoin="round"/>
<path d="M119.435 206.92C117.308 208.647 105.709 230.536 103.564 233.145C101.418 235.754 95.4442 243.188 92.835 245.924C90.9963 248.009 89.4364 250.325 88.1944 252.812C86.5305 254.485 84.7391 256.026 82.8364 257.421" stroke="#263238" stroke-linecap="round" stroke-linejoin="round"/>
<path d="M134.118 216.766C132.237 219.952 130.542 223.244 129.039 226.625C127.135 231.114 121.694 242.566 119.428 246.94C117.162 251.314 113.531 261.287 110.921 262.887C108.312 264.487 104.541 268.105 102.224 267.813" stroke="#263238" stroke-linecap="round" stroke-linejoin="round"/>
<path d="M104.262 269.096C104.262 269.096 103.627 267.674 104.262 267.344" stroke="#263238" stroke-linecap="round" stroke-linejoin="round"/>
<path d="M126.862 269.794C126.862 269.794 132.087 264.798 132.81 261.147C133.534 257.497 143.793 228.771 143.793 228.771" stroke="#263238" stroke-linecap="round" stroke-linejoin="round"/>
<path d="M107.157 205.206C107.157 205.206 113.105 204.819 116.292 209.053C116.292 209.053 111.505 220.969 105.709 217.941C99.9134 214.913 107.157 205.206 107.157 205.206Z" fill="white" stroke="#263238" stroke-linecap="round" stroke-linejoin="round"/>
<path d="M122.672 209.053C122.672 209.053 128.646 208.843 133.337 212.805C133.337 212.805 130.208 226.187 122.672 224.156C115.137 222.124 120.203 213.37 122.672 209.053Z" fill="white" stroke="#263238" stroke-linecap="round" stroke-linejoin="round"/>
<path d="M135.572 220.487C135.572 220.487 132.233 225.514 132.671 229.184C133.109 232.853 138.029 232.174 138.029 232.174" stroke="#263238" stroke-linecap="round" stroke-linejoin="round"/>
<path d="M110.636 233.145C110.636 233.145 114.737 236.18 118.704 236.986" stroke="#263238" stroke-linecap="round" stroke-linejoin="round"/>
<path d="M76.2849 238.655C76.2849 238.655 76.869 245.638 78.3164 248.076C79.7638 250.514 89.5085 250.393 89.5085 250.393" stroke="#263238" stroke-linecap="round" stroke-linejoin="round"/>
<path d="M91.9399 255.174C93.5546 258.026 96.0458 260.281 99.0437 261.605C104.122 263.871 107.639 262.874 107.639 262.874" stroke="#263238" stroke-linecap="round" stroke-linejoin="round"/>
<path d="M116.292 265.318C116.292 265.318 123.973 268.842 128.614 266.067" stroke="#263238" stroke-linecap="round" stroke-linejoin="round"/>
<path d="M94.8411 221.667C94.8411 221.667 96.4789 225.476 99.7928 226.353" stroke="#263238" stroke-linecap="round" stroke-linejoin="round"/>
<path d="M126.862 245.924C128.49 247.268 130.522 248.026 132.633 248.076" stroke="#263238" stroke-linecap="round" stroke-linejoin="round"/>
<path d="M200.217 250.101C200.217 250.101 195.576 258.507 190.65 260.83C185.724 263.154 181.661 262.284 178.766 264.004C175.871 265.725 170.938 266.613 164.273 267.775C157.607 268.937 150.89 270.384 146.129 269.515C144.48 269.199 142.888 268.639 141.406 267.851C138.204 266.081 135.303 263.814 132.81 261.135C130.442 258.703 130.645 254.787 132.239 252.146C132.584 251.503 133.058 250.938 133.63 250.485C134.202 250.031 134.861 249.7 135.565 249.511C135.565 249.511 133.972 248.241 132.175 246.635C130.226 244.896 128.055 242.75 127.459 241.392C126.291 238.782 126.583 234.148 130.633 230.085C131.798 228.902 133.202 227.981 134.75 227.382C136.299 226.783 137.958 226.521 139.616 226.613C139.616 226.613 133.407 221.534 135.845 215.592C136.727 213.446 138.302 210.608 143.095 209.796C149.957 208.634 153.823 212.551 153.823 212.551C153.823 212.551 152.738 205.746 159.657 204.298C166.577 202.851 181.661 213.865 184.568 215.319C186.657 216.36 189.933 218.747 193.011 220.645L193.748 221.102C194.599 221.61 195.43 222.074 196.198 222.442C199.785 225.051 200.871 229.171 202.68 230.32C203.19 230.607 203.772 230.743 204.356 230.712C204.941 230.68 205.505 230.483 205.981 230.142C206.102 230.326 206.216 230.504 206.311 230.676C207.752 233.285 211.231 244.337 200.217 250.101Z" fill="white"/>
<path opacity="0.4" d="M200.217 250.101C200.217 250.101 195.576 258.507 190.65 260.83C185.724 263.154 181.661 262.284 178.766 264.004C175.871 265.725 170.938 266.613 164.273 267.775C157.607 268.937 150.89 270.384 146.129 269.515C144.481 269.199 142.888 268.638 141.406 267.851C145.006 267.578 147.754 265.775 149.024 263.071C150.617 259.719 145.882 259.465 144.745 261.585C143.609 263.706 136.803 262.944 138.003 261.585C139.203 260.227 136.803 253.276 135.54 252.342C135.001 251.93 133.636 251.968 132.214 252.146C132.559 251.503 133.033 250.938 133.605 250.484C134.177 250.031 134.835 249.7 135.54 249.511C135.54 249.511 133.947 248.241 132.15 246.635L136.594 249.27C136.594 249.27 146.116 257.523 151.316 261.585C156.515 265.648 166.374 264.683 168.964 261.585C171.554 258.488 159.803 248.838 156.134 245.905C152.579 243.074 151.011 238.332 150.922 238.04C151.233 238.332 160.851 247.645 166.158 253.86C171.58 260.208 177.23 258.303 183.368 255.44C189.507 252.577 186.073 244.388 184.111 242.439C182.15 240.49 173.51 232.986 172.151 230.707C170.792 228.428 161.359 220.378 160.724 219.871C161.359 220.29 171.802 227.051 173.3 228.758C174.798 230.466 178.715 233.202 184.53 237.354C190.345 241.506 194.757 246.324 199.055 237.354C202.007 231.183 196.611 224.321 192.954 220.632L193.691 221.089C194.542 221.597 195.373 222.061 196.141 222.429C199.728 225.038 200.814 229.158 202.623 230.307C203.133 230.595 203.715 230.73 204.299 230.699C204.884 230.668 205.448 230.47 205.924 230.13C206.045 230.314 206.159 230.491 206.254 230.663C207.752 233.285 211.231 244.337 200.217 250.101Z" fill="#92E3A9"/>
<path opacity="0.4" d="M141.4 223.553C142.219 221.539 143.498 219.744 145.133 218.311C146.769 216.878 148.716 215.847 150.821 215.3C150.821 215.3 157.924 220.226 157.924 224.283C157.924 228.339 155.188 231.482 150.11 229.914C145.031 228.346 141.4 223.553 141.4 223.553Z" fill="#92E3A9"/>
<path opacity="0.4" d="M158.47 213.294C158.47 213.294 161.378 209.523 165.866 208.367C165.866 208.367 175.217 215.471 171.7 219.236C168.183 223 159.918 218.22 158.47 213.294Z" fill="#92E3A9"/>
<path opacity="0.4" d="M131.744 241.252C131.744 241.252 135.324 235.653 140.587 234.148C140.587 234.148 151.462 240.287 145.951 245.118C140.441 249.949 133.052 243.861 131.744 241.252Z" fill="#92E3A9"/>
<path d="M200.217 250.101C200.217 250.101 195.576 258.507 190.65 260.83C185.724 263.154 181.661 262.284 178.766 264.004C175.871 265.725 170.938 266.613 164.273 267.775C157.607 268.937 150.89 270.384 146.129 269.515C141.368 268.645 136.88 265.306 132.798 261.135C129.23 257.466 131.496 250.387 135.553 249.511C135.553 249.511 128.601 244.001 127.446 241.392C126.29 238.782 126.57 234.148 130.62 230.085C131.785 228.902 133.189 227.981 134.738 227.382C136.286 226.783 137.945 226.521 139.603 226.613C139.603 226.613 133.394 221.534 135.832 215.592C136.714 213.446 138.289 210.608 143.082 209.796C149.944 208.634 153.81 212.551 153.81 212.551C153.81 212.551 152.725 205.746 159.645 204.298C166.564 202.851 181.661 213.865 184.568 215.319C186.822 216.449 190.472 219.128 193.748 221.102C194.599 221.61 195.43 222.074 196.198 222.442C199.785 225.051 200.871 229.171 202.68 230.32C203.19 230.607 203.772 230.743 204.356 230.712C204.941 230.68 205.505 230.483 205.981 230.142C206.102 230.326 206.216 230.504 206.311 230.676C207.752 233.285 211.231 244.337 200.217 250.101Z" stroke="#263238" stroke-linecap="round" stroke-linejoin="round"/>
<path d="M153.83 212.595C154.801 214.83 163.619 222.753 167.428 225.076C171.237 227.4 181.857 238.992 184.949 240.528C188.041 242.064 190.745 246.908 194.414 248.07" stroke="#263238" stroke-linecap="round" stroke-linejoin="round"/>
<path d="M139.628 226.625C144.942 231.069 150.935 238.605 153.83 240.731C156.724 242.858 163.301 250.203 166.203 253.873C169.104 257.542 171.034 260.056 182.435 261.605" stroke="#263238" stroke-linecap="round" stroke-linejoin="round"/>
<path d="M186.473 250.394C186.473 250.394 185.705 257.377 175.046 258.704" stroke="#263238" stroke-linecap="round" stroke-linejoin="round"/>
<path d="M199.252 230.32C199.252 230.32 202.147 238.604 194.415 241.696" stroke="#263238" stroke-linecap="round" stroke-linejoin="round"/>
<path d="M135.572 249.524C135.572 249.524 143.069 255.802 146.129 257.542C149.189 259.281 153.252 263.922 156.344 264.887C158.367 265.447 160.504 265.447 162.527 264.887" stroke="#263238" stroke-linecap="round" stroke-linejoin="round"/>
<path d="M170.538 258.183C169.741 259.52 168.683 260.684 167.428 261.605" stroke="#263238" stroke-linecap="round" stroke-linejoin="round"/>
<path d="M139.628 222.416C140.445 220.4 141.722 218.604 143.358 217.171C144.994 215.738 146.943 214.708 149.049 214.164C149.049 214.164 156.153 219.09 156.153 223.153C156.153 227.216 153.411 230.345 148.332 228.777C143.253 227.209 139.628 222.416 139.628 222.416Z" fill="white" stroke="#263238" stroke-linecap="round" stroke-linejoin="round"/>
<path d="M157.309 212.595C157.309 212.595 160.216 208.825 164.704 207.663C164.704 207.663 174.062 214.767 170.539 218.538C167.015 222.308 158.762 217.49 157.309 212.595Z" fill="white" stroke="#263238" stroke-linecap="round" stroke-linejoin="round"/>
<path d="M130.785 240.249C130.785 240.249 134.359 234.643 139.628 233.145C139.628 233.145 150.497 239.284 144.993 244.115C139.489 248.946 132.093 242.858 130.785 240.249Z" fill="white" stroke="#263238" stroke-linecap="round" stroke-linejoin="round"/>
<path d="M133.337 258.431C133.337 258.431 138.378 257.408 139.616 252.812C139.616 252.812 144.771 256.793 141.8 259.891C137.432 264.455 133.337 258.431 133.337 258.431Z" fill="white" stroke="#263238" stroke-linecap="round" stroke-linejoin="round"/>
<path d="M177.458 227.927C178.342 227.437 179.102 226.752 179.679 225.923C180.257 225.095 180.637 224.145 180.791 223.146" stroke="#263238" stroke-linecap="round" stroke-linejoin="round"/>
<path d="M168.329 233.145C168.329 233.145 167.205 239.493 161.029 240.534" stroke="#263238" stroke-linecap="round" stroke-linejoin="round"/>
<path d="M152.827 248.076C152.827 248.076 150.287 251.752 146.554 252.812" stroke="#263238" stroke-linecap="round" stroke-linejoin="round"/>
<path d="M155.112 264.347C154.068 265.861 152.621 267.053 150.935 267.788" stroke="#263238" stroke-linecap="round" stroke-linejoin="round"/>
<path d="M159.67 265.318C159.736 265.752 159.713 266.193 159.604 266.618C159.495 267.042 159.302 267.44 159.035 267.788" stroke="#263238" stroke-linecap="round" stroke-linejoin="round"/>
<path d="M141.66 266.556C142.909 266.452 144.119 266.066 145.197 265.427C146.276 264.788 147.196 263.913 147.888 262.868" stroke="#263238" stroke-linecap="round" stroke-linejoin="round"/>
</svg>
