<svg width="40" height="41" viewBox="0 0 40 41" fill="none" xmlns="http://www.w3.org/2000/svg">
<path d="M20.3846 3.29956C15.7943 3.29956 11.392 5.12304 8.14621 8.36887C4.90039 11.6147 3.0769 16.017 3.0769 20.6073C3.0769 25.1975 4.90039 29.5998 8.14621 32.8456C11.392 36.0915 15.7943 37.9149 20.3846 37.9149C24.9749 37.9149 29.3772 36.0915 32.623 32.8456C35.8688 29.5998 37.6923 25.1975 37.6923 20.6073C37.6923 16.017 35.8688 11.6147 32.623 8.36887C29.3772 5.12304 24.9749 3.29956 20.3846 3.29956ZM5.21152 21.9149H10.0384C10.1154 23.6649 10.3596 25.4034 10.7692 27.1073H6.61537C5.84076 25.4743 5.36529 23.7157 5.21152 21.9149ZM21.6923 11.5303V5.58802C23.5455 6.2923 25.0684 7.66422 25.9615 9.43418C26.3557 10.1015 26.7038 10.7957 27 11.5111L21.6923 11.5303ZM27.8846 14.1265C28.3307 15.8246 28.5961 17.5649 28.6731 19.3188H21.6923V14.1265H27.8846ZM19.0769 5.58802V11.5303H13.7692C14.0659 10.8144 14.4129 10.1203 14.8077 9.45341C15.697 7.6762 17.2203 6.29699 19.0769 5.58802ZM19.0769 14.1265V19.3188H12.1154C12.1923 17.5649 12.4577 15.8246 12.9038 14.1265H19.0769ZM10.0384 19.2996H5.21152C5.36529 17.4988 5.84076 15.7402 6.61537 14.1073H10.7692C10.3588 15.8104 10.1141 17.5493 10.0384 19.2996ZM12.1154 21.9149H19.0769V27.1073H12.9038C12.4577 25.4093 12.1934 23.6688 12.1154 21.9149ZM19.0961 29.6073V35.5496C17.2429 34.8453 15.7201 33.4734 14.8269 31.7034C14.4321 31.0365 14.0851 30.3425 13.7884 29.6265L19.0961 29.6073ZM21.6923 35.5496V29.7034H27C26.7033 30.4194 26.3563 31.1134 25.9615 31.7803C25.0684 33.5503 23.5455 34.9222 21.6923 35.6265V35.5496ZM21.6923 27.0111V21.8188H28.6538C28.5758 23.5726 28.3115 25.3132 27.8654 27.0111H21.6923ZM30.75 21.8188H35.5769C35.4231 23.6196 34.9477 25.3782 34.1731 27.0111H30C30.4038 25.338 30.6481 23.6323 30.7307 21.9149L30.75 21.8188ZM30.75 19.2226C30.6619 17.504 30.4108 15.7976 30 14.1265H34.1538C34.9288 15.7611 35.4038 17.5188 35.5577 19.3188L30.75 19.2226ZM32.6731 11.5303H29.2308C28.6079 9.78091 27.7051 8.14422 26.5577 6.68418C28.9507 7.75837 31.0294 9.42658 32.5961 11.5303H32.6731ZM14.2115 6.68418C13.0641 8.14422 12.1613 9.78091 11.5384 11.5303H8.17306C9.73983 9.42658 11.8185 7.75837 14.2115 6.68418ZM8.15383 29.7611H11.5384C12.1613 31.5105 13.0641 33.1472 14.2115 34.6073C11.8119 33.5169 9.73257 31.8283 8.17306 29.7034L8.15383 29.7611ZM26.5384 34.6073C27.6859 33.1472 28.5887 31.5105 29.2115 29.7611H32.5961C31.0198 31.8367 28.942 33.4777 26.5577 34.5303L26.5384 34.6073Z" fill="#FFFBFF"/>
<path d="M20.3846 3.29956C15.7943 3.29956 11.392 5.12304 8.14621 8.36887C4.90039 11.6147 3.0769 16.017 3.0769 20.6073C3.0769 25.1975 4.90039 29.5998 8.14621 32.8456C11.392 36.0915 15.7943 37.9149 20.3846 37.9149C24.9749 37.9149 29.3772 36.0915 32.623 32.8456C35.8688 29.5998 37.6923 25.1975 37.6923 20.6073C37.6923 16.017 35.8688 11.6147 32.623 8.36887C29.3772 5.12304 24.9749 3.29956 20.3846 3.29956ZM5.21152 21.9149H10.0384C10.1154 23.6649 10.3596 25.4034 10.7692 27.1073H6.61537C5.84076 25.4743 5.36529 23.7157 5.21152 21.9149ZM21.6923 11.5303V5.58802C23.5455 6.2923 25.0684 7.66422 25.9615 9.43418C26.3557 10.1015 26.7038 10.7957 27 11.5111L21.6923 11.5303ZM27.8846 14.1265C28.3307 15.8246 28.5961 17.5649 28.6731 19.3188H21.6923V14.1265H27.8846ZM19.0769 5.58802V11.5303H13.7692C14.0659 10.8144 14.4129 10.1203 14.8077 9.45341C15.697 7.6762 17.2203 6.29699 19.0769 5.58802ZM19.0769 14.1265V19.3188H12.1154C12.1923 17.5649 12.4577 15.8246 12.9038 14.1265H19.0769ZM10.0384 19.2996H5.21152C5.36529 17.4988 5.84076 15.7402 6.61537 14.1073H10.7692C10.3588 15.8104 10.1141 17.5493 10.0384 19.2996ZM12.1154 21.9149H19.0769V27.1073H12.9038C12.4577 25.4093 12.1934 23.6688 12.1154 21.9149ZM19.0961 29.6073V35.5496C17.2429 34.8453 15.7201 33.4734 14.8269 31.7034C14.4321 31.0365 14.0851 30.3425 13.7884 29.6265L19.0961 29.6073ZM21.6923 35.5496V29.7034H27C26.7033 30.4194 26.3563 31.1134 25.9615 31.7803C25.0684 33.5503 23.5455 34.9222 21.6923 35.6265V35.5496ZM21.6923 27.0111V21.8188H28.6538C28.5758 23.5726 28.3115 25.3132 27.8654 27.0111H21.6923ZM30.75 21.8188H35.5769C35.4231 23.6196 34.9477 25.3782 34.1731 27.0111H30C30.4038 25.338 30.6481 23.6323 30.7307 21.9149L30.75 21.8188ZM30.75 19.2226C30.6619 17.504 30.4108 15.7976 30 14.1265H34.1538C34.9288 15.7611 35.4038 17.5188 35.5577 19.3188L30.75 19.2226ZM32.6731 11.5303H29.2308C28.6079 9.78091 27.7051 8.14422 26.5577 6.68418C28.9507 7.75837 31.0294 9.42658 32.5961 11.5303H32.6731ZM14.2115 6.68418C13.0641 8.14422 12.1613 9.78091 11.5384 11.5303H8.17306C9.73983 9.42658 11.8185 7.75837 14.2115 6.68418ZM8.15383 29.7611H11.5384C12.1613 31.5105 13.0641 33.1472 14.2115 34.6073C11.8119 33.5169 9.73257 31.8283 8.17306 29.7034L8.15383 29.7611ZM26.5384 34.6073C27.6859 33.1472 28.5887 31.5105 29.2115 29.7611H32.5961C31.0198 31.8367 28.942 33.4777 26.5577 34.5303L26.5384 34.6073Z" fill="#217D33" fill-opacity="0.11"/>
</svg>
