<svg width="55" height="54" viewBox="0 0 55 54" fill="none" xmlns="http://www.w3.org/2000/svg">
<g filter="url(#filter0_d_960_1506)">
<path d="M22.946 13.3415C21.1302 13.6968 19.5907 15.2758 18.6827 17.6048C17.8538 19.6575 17.2617 20.8022 15.9195 20.9601L19.5117 22.7365C19.5117 22.7365 22.4329 16.6179 24.4066 15.9468C26.3803 15.2758 29.0646 15.3152 29.0646 15.3152C29.0646 15.3152 25.4724 12.8678 22.946 13.3415ZM5.10343 28.2235C5.10343 28.2235 2.89284 27.1577 2.97179 25.1444C2.97179 25.1444 4.62973 21.7101 6.91927 20.2496C8.97196 18.9469 10.3536 19.0653 10.3536 19.0653C10.3536 19.0653 12.2484 19.4601 13.4721 20.8812C13.4721 20.8812 11.9326 19.7759 8.69563 23.0128C5.9324 25.8155 5.10343 28.2235 5.10343 28.2235Z" fill="#FF7043"/>
<path d="M16.3928 20.8417C16.3928 20.8417 15.327 20.9601 14.498 20.5259C12.998 19.6969 11.9716 18.9864 9.91895 19.0653C9.91895 19.0653 11.1032 19.2232 13.0375 20.6443C13.0375 20.6443 16.7086 22.4207 18.0113 22.9339C19.3139 23.4865 19.3929 22.3812 19.3929 22.3812C19.3929 22.3812 19.5903 22.0654 18.9587 21.9075C18.3665 21.7891 17.9718 21.7496 17.4586 21.4338C16.9849 21.1575 17.1034 20.9601 16.3928 20.8417Z" fill="#E64A19"/>
<path d="M26.7359 14.8415C25.078 14.7626 22.749 15.5521 21.2884 18.8285C19.8278 22.1049 19.7489 22.2233 18.9199 22.8549C18.9199 22.8549 19.9857 25.7366 23.8937 25.4997C23.8937 25.4997 25.3938 19.1443 26.8544 17.9206C28.907 16.2232 30.7624 16.6969 31.6308 17.4074C31.6308 17.3679 29.6965 14.9994 26.7359 14.8415Z" fill="#FFCCBC"/>
<path d="M40.7497 8.76241C40.7497 8.76241 36.5654 6.67025 34.2363 7.85449C32.0652 8.95978 31.5915 10.6177 30.6836 12.0783C29.8152 13.5389 29.223 13.1046 28.1572 14.0126L31.9073 15.5126C31.9073 15.5126 32.6573 15.6705 33.7626 13.8547C34.8679 12.0388 35.4206 10.0651 36.9601 9.43348C38.4996 8.80188 40.7497 8.76241 40.7497 8.76241Z" fill="#FF7043"/>
<path d="M12.2881 20.5259C12.2881 20.5259 14.0645 20.5654 15.525 21.5127C16.9856 22.4207 18.4067 23.2102 19.4725 22.3812C19.4725 22.3812 19.7093 22.5786 20.2225 23.3681C20.6173 23.9602 21.4068 24.3944 22.3542 24.5918C23.4989 24.8286 23.9331 25.4602 23.9331 25.4602C23.9331 25.4602 23.9726 27.3945 21.2489 26.2102C18.9988 25.2234 18.0514 24.1181 16.8277 23.0523C16.5514 22.8154 16.3145 22.618 15.9198 22.3812C13.7487 21.0391 12.2881 20.5259 12.2881 20.5259Z" fill="#FFAB91"/>
<path d="M28.117 14.0125C27.9196 14.2099 27.4459 14.1704 25.9854 13.6178C25.0775 13.2625 24.2485 13.1836 23.459 13.302C23.459 13.302 25.4327 13.5389 27.0512 14.802C27.0512 14.802 28.6302 15.3547 29.7355 16.0258C30.4855 16.46 31.7487 15.8284 31.8671 15.3152C31.9855 14.802 30.2486 14.6441 29.5776 14.3283C28.7881 13.8941 29.0249 13.2231 28.117 14.0125Z" fill="#E64A19"/>
<path d="M16.3928 22.6181C16.3928 22.6181 13.9058 20.0917 11.4189 20.5654C9.05045 21.0391 6.40564 22.4602 4.31348 27.6708C4.31348 27.6708 5.3793 29.6446 6.87934 30.3551C6.87934 30.3946 11.3005 22.1049 16.3928 22.6181Z" fill="#FFCCBC"/>
<path d="M20.8938 27.0787C20.8938 27.0787 17.7359 21.947 14.4989 22.3417C11.3804 22.7365 8.49876 26.4076 6.84082 30.3551C6.84082 30.3551 8.22244 32.2104 10.1172 33.3157C10.1172 33.3157 13.1963 27.3945 14.8147 26.3287C16.3148 25.3418 17.578 25.0655 19.5517 26.3287L20.8938 27.0787Z" fill="#FF7043"/>
<path d="M43.1171 10.7756C43.1171 10.7756 41.3407 8.40714 38.8143 8.20976C36.3669 8.01239 35.2616 9.11768 34.3142 11.2098C33.5247 12.9862 32.8141 14.6442 30.8799 15.8284C30.8799 15.8284 32.6562 17.3284 34.0773 17.8021C35.4984 18.3153 36.1695 16.8153 36.6037 14.7626C36.9985 12.7099 37.1958 11.4467 38.4196 10.4993C39.9196 9.35453 40.5117 9.8677 43.1171 10.7756Z" fill="#FFCCBC"/>
<path d="M44.7366 14.8416C44.7366 14.8416 44.3418 11.0125 41.9733 11.881C39.2101 12.8678 39.9206 20.3286 37.3548 21.0391C34.7889 21.7496 32.4204 17.8022 30.2493 19.4996C28.0782 21.2365 29.1046 28.263 24.8018 28.8156C20.8543 29.3288 19.2753 25.7366 16.8674 26.2498C14.341 26.7629 13.1962 28.1051 11.0251 33.1973L10.1172 33.3157C10.1172 33.3157 12.762 25.8155 16.591 25.3024C19.5911 24.9076 21.2885 28.7762 24.6834 28.1446C28.8282 27.3945 27.6835 19.1048 30.3283 18.3943C32.9731 17.6837 35.5389 21.2759 37.2364 20.447C38.9338 19.618 38.9338 11.8415 41.4996 11.0915C44.6181 10.1835 44.7366 14.4468 44.7366 14.4468V14.8416Z" fill="#E64A19"/>
<path d="M27.0508 14.802C27.0508 14.802 28.5903 14.9994 29.5772 15.4731C30.643 15.9862 30.9193 15.8283 31.4325 15.4336C32.0641 14.9599 32.2615 16.302 32.7746 16.6573C33.5246 17.1705 34.9457 16.9336 35.2615 17.131C35.4984 17.2889 35.7747 17.4863 35.4194 17.8416C35.0642 18.1968 35.301 18.9469 34.472 18.4732C32.3799 17.3284 29.814 16.6573 29.814 16.6573C29.814 16.6573 29.1429 15.5915 27.0508 14.802Z" fill="#FFAB91"/>
<path d="M44.3018 13.0652C44.3018 13.0652 43.4334 9.43348 40.2754 9.15716C37.9069 8.95978 36.7227 12.473 36.4858 13.9731C36.249 15.4731 35.9726 16.7758 35.0647 17.96C34.1963 19.0653 37.5121 21.3154 38.3016 19.2627C39.0911 17.21 39.0911 14.881 40.078 13.2625C41.1043 11.6835 41.6965 11.5651 42.486 11.6835C43.2755 11.8414 44.1044 11.6441 44.736 14.7626L44.3018 13.0652Z" fill="#FF7043"/>
<path d="M35.4599 17.3679C35.4599 17.3679 34.9467 18.71 33.8809 18.1179C32.6967 17.4863 31.5914 16.6968 29.8545 16.6573C29.8545 16.6573 31.6309 16.8152 33.2493 18.9074C33.2493 18.9074 35.6573 20.9601 36.9205 20.7232C38.1837 20.4469 38.4205 19.0653 38.4205 19.0653C38.4205 19.0653 38.381 18.6706 37.3942 18.6311C36.3678 18.5916 35.9731 17.131 35.4599 17.3679Z" fill="#E64A19"/>
<path d="M33.2096 18.9469C33.2096 18.9469 32.0649 17.0127 29.8148 16.6969C27.6042 16.3811 26.1042 18.0785 25.1963 19.7759C24.2094 21.5523 24.2883 26.5656 22.3936 26.2892C22.3936 26.2892 23.4199 27.9077 24.6831 28.184C24.6831 28.184 27.17 28.3814 28.0779 23.7629C28.9858 19.1443 30.0911 18.118 33.2096 18.9469Z" fill="#FF7043"/>
<path d="M23.0639 26.0919C23.0639 26.0919 22.3534 26.5261 20.8928 25.8155C19.1164 24.9866 18.5638 23.5655 16.1953 22.5786C16.1953 22.5786 18.248 23.9997 19.5507 26.2892C20.656 28.263 22.7481 28.2235 24.2087 28.3814C25.6693 28.5393 26.064 27.8288 26.3403 27.3551C26.6167 26.8814 25.5508 26.9208 24.9192 26.8419C24.3271 26.8024 23.9718 25.3418 23.0639 26.0919ZM44.8145 14.881L40.3144 13.1047C40.3144 13.1047 41.4986 11.1309 42.8803 11.6836C44.8935 12.4731 44.8145 14.881 44.8145 14.881Z" fill="#E64A19"/>
<path d="M29.6968 24.3944C27.881 24.9866 26.4599 26.7629 25.7888 29.2893C25.1967 31.5394 24.6835 32.7631 23.3019 33.0789L27.2099 34.4605C27.2099 34.4605 29.4994 27.7893 31.4337 26.8814C33.368 25.9734 36.1707 25.6971 36.1707 25.6971C36.1707 25.6971 32.2232 23.5655 29.6968 24.3944ZM10.9463 41.6054C10.9463 41.6054 8.57782 40.2633 8.41992 38.6843C8.41992 38.6843 11.8148 33.4342 13.9069 32.2104C16.0386 30.9473 17.3412 31.342 17.3412 31.342C17.3412 31.342 19.315 31.5394 20.7755 32.842C20.7755 32.842 17.5781 32.3289 14.578 36C11.5779 39.6712 10.9463 41.6054 10.9463 41.6054Z" fill="#FF7043"/>
<path d="M23.8146 32.8815C23.8146 32.8815 23.183 33.0789 21.6435 32.3288C20.104 31.5788 18.8408 31.3814 17.0645 31.3025C17.0645 31.3025 18.9987 31.4604 20.7751 32.8815C20.7751 32.8815 24.3673 34.4605 25.7489 34.8552C27.17 35.25 27.1305 34.1052 27.1305 34.1052C27.1305 34.1052 27.2884 33.7499 26.6568 33.671C26.0252 33.592 25.6305 33.592 25.0384 33.3552C24.4462 33.1183 24.5252 32.921 23.8146 32.8815Z" fill="#E64A19"/>
<path d="M33.8012 25.4997C32.0643 25.6181 29.7748 26.6839 28.63 30.2367C27.4852 33.7894 27.4457 33.9078 26.6562 34.6579C26.6562 34.6579 28.0773 37.5 32.1038 36.7895C32.1038 36.7895 32.9327 30.0393 34.2749 28.6182C36.1697 26.605 38.1829 26.9208 39.1303 27.5129C39.1303 27.5129 36.8407 25.2629 33.8012 25.4997Z" fill="#FFCCBC"/>
<path d="M47.5781 16.3811C47.5781 16.3811 43.3938 14.7231 41.1437 16.2232C39.0121 17.6443 38.341 19.3811 37.591 20.9601C36.841 22.5786 36.1699 23.4076 35.1436 24.4339L39.17 25.5392C39.17 25.5392 39.9595 25.6182 40.8674 23.6049C41.7753 21.5917 42.1701 18.3153 43.7096 17.5258C45.2491 16.6969 47.5781 16.3811 47.5781 16.3811Z" fill="#FF7043"/>
<path d="M19.4727 32.6842C19.4727 32.6842 21.0122 32.6447 22.6306 33.4342C24.2491 34.2237 26.1439 35.0921 27.1308 34.1053C27.1308 34.1053 27.4071 34.2632 27.9992 35.0132C28.4729 35.6053 29.3413 35.9606 30.3677 36.0395C31.5914 36.1579 32.0651 36.7501 32.0651 36.7501C32.0651 36.7501 32.302 38.7633 29.3808 37.8554C26.4597 36.9474 26.3018 35.6842 23.9728 34.5395C21.6438 33.3947 19.4727 32.6842 19.4727 32.6842Z" fill="#FFAB91"/>
<path d="M35.1439 24.4339C34.9465 24.6313 34.4728 24.7102 32.8938 24.276C31.907 24.0392 31.078 24.0392 30.249 24.2365C30.249 24.2365 32.3017 24.276 34.1176 25.3813C34.1176 25.3813 35.815 25.7366 37.0387 26.3287C37.8282 26.7235 39.0914 25.8945 39.1703 25.3418C39.2493 24.7892 37.394 24.8681 36.6834 24.5918C35.7755 24.276 35.9334 23.526 35.1439 24.4339Z" fill="#E64A19"/>
<path d="M23.9724 34.5394C23.9724 34.5394 21.0907 32.013 18.6038 32.8025C16.2353 33.5526 13.2747 35.8816 10.9062 41.6054C10.9062 41.6054 12.6037 43.4213 14.9327 44.0134C14.9327 44.0134 18.6828 34.5789 23.9724 34.5394Z" fill="#FFCCBC"/>
<path d="M27.9984 37.4211C27.9984 37.4211 25.2351 33.7105 22.0771 34.5C18.9192 35.2895 16.1954 39.7501 14.9717 44.0134C14.9717 44.0134 16.7875 45.5529 18.8402 46.5003C18.8402 46.5003 21.2876 39.6317 22.8666 38.3685C24.3272 37.1843 25.1562 36.1579 27.5641 37.4606L27.9984 37.4211Z" fill="#FF7043"/>
<path d="M50.4602 17.9205C50.4602 17.9205 47.7365 15.8678 45.5259 15.9863C43.3153 16.1047 42.4469 17.7626 41.6179 19.6179C40.7889 21.4733 40.0389 24.5128 38.1836 25.9734C38.1836 25.9734 40.1573 27.3155 41.7363 27.6708C43.2758 28.0261 43.789 26.4076 43.9864 24.2365C44.1838 22.0654 44.2627 19.539 45.4075 18.4337C46.7891 17.0521 47.6575 17.3284 50.4602 17.9205Z" fill="#FFCCBC"/>
<path d="M52.7499 22.6181C52.7499 22.6181 51.5262 18.2758 49.1577 19.4206C46.4339 20.7627 47.9735 29.5656 45.4076 30.592C42.8417 31.6578 39.9206 27.7893 37.8679 29.8419C35.8152 31.8946 37.71 39.0001 33.3283 40.0659C29.3414 41.0528 27.3282 36.4342 24.8807 37.2632C22.3543 38.0922 21.2885 40.6975 19.6306 46.224L18.7227 46.4608C18.7227 46.4608 20.3016 37.4606 24.2096 36.4737C27.4466 35.6447 30.0519 40.3422 33.1309 39.3948C37.2758 38.1316 35.1442 29.7235 37.8284 28.6577C40.5127 27.5919 43.5523 30.9867 45.2102 29.9998C46.8682 28.9735 45.9602 19.7364 48.5656 18.6706C50.9735 17.6837 52.3157 20.2101 52.8289 21.4733C53.0657 21.868 53.0262 22.3023 52.7499 22.6181Z" fill="#E64A19"/>
<path d="M34.1172 25.4208C34.1172 25.4208 35.6962 25.4208 36.8015 25.8155C37.9462 26.2103 38.2226 26.0524 38.6963 25.5787C39.2884 25.026 39.6831 26.3682 40.2358 26.684C41.1042 27.1182 42.5253 26.7234 42.8806 26.8813C43.1569 26.9998 43.4332 27.1971 43.1174 27.5919C42.8016 27.9866 43.1174 28.7367 42.2095 28.3814C39.92 27.3945 37.1962 26.9998 37.1962 26.9998C37.1962 26.9998 36.3278 25.9734 34.1172 25.4208Z" fill="#FFAB91"/>
<path d="M52.7496 22.6181C53.0259 22.3023 53.0654 21.868 52.9075 21.5128C52.3153 20.0522 50.4995 16.46 47.1442 16.8547C43.9072 17.21 43.8283 21.868 43.7493 23.447C43.6704 25.026 43.552 26.4076 42.723 27.7103C41.9335 28.934 45.6441 30.9078 46.2362 28.6972C46.7889 26.4866 46.552 22.8944 47.4205 21.118C48.2889 19.3417 48.881 19.1838 49.71 19.2232C50.539 19.3417 50.3021 18.5522 52.7496 22.6181Z" fill="#FF7043"/>
<path d="M43.078 27.0787C43.078 27.0787 42.7228 28.4998 41.5385 28.0261C40.2753 27.5129 38.9727 26.8418 37.1963 26.9997C37.1963 26.9997 39.0516 26.9603 40.9464 28.934C40.9464 28.934 43.6701 30.7893 44.9333 30.3551C46.1965 29.9209 46.2755 28.4998 46.2755 28.4998C46.2755 28.4998 46.1965 28.105 45.1702 28.184C44.1833 28.2235 43.5912 26.7234 43.078 27.0787Z" fill="#E64A19"/>
<path d="M40.9465 28.934C40.9465 28.934 39.5254 27.0787 37.1964 26.9998C34.8674 26.9208 33.5252 28.8551 32.7752 30.7104C31.9857 32.6841 32.6173 37.8159 30.6436 37.7764C30.6436 37.7764 31.8673 39.3159 33.2489 39.4343C33.2489 39.4343 35.8148 39.3554 36.2095 34.5C36.6042 29.6446 37.6306 28.4603 40.9465 28.934Z" fill="#FF7043"/>
<path d="M31.3149 37.5001C31.3149 37.5001 30.6438 38.0527 29.0253 37.5001C27.1305 36.829 26.3016 35.0921 24.1699 34.5789C24.1699 34.5789 25.9858 36 27.6832 37.579C29.4201 39.158 31.2359 39.7896 32.7359 39.7501C34.2755 39.7501 34.5913 38.9606 34.8281 38.4475C35.065 37.9343 33.9597 38.0922 33.3281 38.0922C32.6965 38.0922 32.1833 36.6316 31.3149 37.5001ZM52.7497 22.6181L47.8943 20.2891C47.8943 20.2891 48.7627 18.4732 50.7759 19.3417C52.1181 19.9338 52.7497 22.6181 52.7497 22.6181Z" fill="#E64A19"/>
</g>
<defs>
<filter id="filter0_d_960_1506" x="0.969727" y="7.49146" width="54.0303" height="43.0089" filterUnits="userSpaceOnUse" color-interpolation-filters="sRGB">
<feFlood flood-opacity="0" result="BackgroundImageFix"/>
<feColorMatrix in="SourceAlpha" type="matrix" values="0 0 0 0 0 0 0 0 0 0 0 0 0 0 0 0 0 0 127 0" result="hardAlpha"/>
<feMorphology radius="2" operator="erode" in="SourceAlpha" result="effect1_dropShadow_960_1506"/>
<feOffset dy="2"/>
<feGaussianBlur stdDeviation="2"/>
<feComposite in2="hardAlpha" operator="out"/>
<feColorMatrix type="matrix" values="0 0 0 0 0 0 0 0 0 0 0 0 0 0 0 0 0 0 0.2 0"/>
<feBlend mode="normal" in2="BackgroundImageFix" result="effect1_dropShadow_960_1506"/>
<feBlend mode="normal" in="SourceGraphic" in2="effect1_dropShadow_960_1506" result="shape"/>
</filter>
</defs>
</svg>
