<svg width="54" height="54" viewBox="0 0 54 54" fill="none" xmlns="http://www.w3.org/2000/svg">
<g filter="url(#filter0_d_960_1418)">
<path d="M44.8951 25.7962C43.3763 27.3319 42.4313 29.3569 42.2457 31.5C41.8744 35.7862 40.0013 39.8194 36.9638 42.8569C29.9438 49.86 18.5363 49.86 11.5332 42.8569L8.25684 40.0528L10.9568 37.3697C10.2987 32.0541 12.0031 26.4853 16.07 22.4184C19.1075 19.3809 23.1406 17.5078 27.4268 17.1366C27.5593 17.1249 27.6916 17.1103 27.8234 17.0927C27.5057 16.0578 27.4763 14.9558 27.7386 13.9055C28.0009 12.8552 28.5448 11.8964 29.3118 11.1324C30.3832 10.0638 31.8193 9.44028 33.3316 9.38706C34.8438 9.33385 36.3202 9.85491 37.4641 10.8456L41.9225 6.38718L45.1988 9.19123C49.6876 13.68 49.6876 21.0037 45.1988 25.4925L44.8951 25.7962Z" fill="#FBB8AB"/>
<path fill-rule="evenodd" clip-rule="evenodd" d="M41.9714 23.3466C40.4526 24.8822 39.5076 26.9072 39.322 29.0503C38.954 33.3414 37.0905 37.3669 34.057 40.4241C27.037 47.4272 15.6295 47.4441 8.62637 40.4241C1.62324 33.4041 1.62324 21.9966 8.62637 14.9934C11.6639 11.9559 15.697 10.0828 19.9664 9.69469C22.1191 9.50644 24.1376 8.56886 25.6701 7.04531L25.9739 6.74156C30.4626 2.25281 37.7864 2.25281 42.2751 6.74156C46.7639 11.2303 46.7639 18.5541 42.2751 23.0428L41.9714 23.3466ZM31.492 13.3059C30.3614 14.4366 30.3614 16.2591 31.492 17.3897C32.6226 18.5203 34.462 18.5203 35.5926 17.4066C36.7232 16.2759 36.7232 14.4366 35.5926 13.3059C35.0485 12.7629 34.3111 12.4579 33.5423 12.4579C32.7735 12.4579 32.0361 12.7629 31.492 13.3059Z" fill="#F4F4F4"/>
<path d="M12.9532 14.8399C11.8462 15.7174 12.0133 17.5028 13.3346 18.1153L21.6371 22.0472C21.6472 22.0472 21.654 22.0523 21.6641 22.0556C21.6725 22.059 21.681 22.0641 21.6877 22.0641C23.3246 22.8234 25.2483 22.5366 26.5308 21.2541L27.7796 20.0053C28.5727 19.2122 28.8765 18.0478 28.5558 16.9847C28.2802 16.07 28.257 15.0977 28.4887 14.1709C28.7204 13.2441 29.1984 12.3971 29.8721 11.7197C30.3804 11.2089 30.9885 10.8082 31.6585 10.5426C32.3284 10.277 33.0459 10.1522 33.7662 10.1759C34.4865 10.1997 35.1942 10.3715 35.8452 10.6806C36.4962 10.9897 37.0766 11.4296 37.5502 11.9728C39.2883 13.9303 39.2883 16.9341 37.5502 18.9084C36.1158 20.5284 33.9558 21.0516 32.0658 20.4778C31.5385 20.3148 30.9765 20.2994 30.441 20.4332C29.9055 20.5671 29.4169 20.8452 29.0283 21.2372L27.7965 22.4691C26.514 23.7516 26.2271 25.6922 27.0033 27.3291C27.0033 27.3375 27.0084 27.3426 27.0134 27.3459C27.0168 27.351 27.0219 27.3544 27.0219 27.3628L30.9706 35.6484C31.1088 35.9407 31.3179 36.1938 31.5788 36.3845C31.8398 36.5753 32.1444 36.6978 32.4648 36.7407C32.7852 36.7836 33.1112 36.7457 33.4132 36.6304C33.7152 36.5151 33.9835 36.326 34.1938 36.0804C35.6188 33.9092 36.4828 31.4183 36.7081 28.8309C36.9444 26.0634 38.1594 23.4647 40.1169 21.4903L40.4206 21.1866C41.2633 20.346 41.9282 19.3445 42.3758 18.2417C42.8234 17.1389 43.0446 15.9574 43.0261 14.7673C43.0089 13.503 42.7212 12.2571 42.1825 11.1132C41.6437 9.96927 40.8663 8.95395 39.9026 8.13545C36.3858 5.1452 31.0803 5.40507 27.7694 8.69232L27.545 8.91844C25.5771 10.8855 22.9769 12.0929 20.2044 12.3272C17.6166 12.5518 15.1251 13.4152 12.9532 14.8399Z" fill="#F8312F"/>
<path d="M8.34931 19.5176C8.88594 18.7245 9.917 18.4461 10.7861 18.8409L20.9279 23.5997C22.9023 24.5278 24.5054 26.1309 25.4504 28.0884L30.2598 38.1797C30.6817 39.0741 30.3611 40.1372 29.5342 40.6603C27.9751 41.652 26.2489 42.3524 24.4396 42.7275C21.9495 43.243 19.3703 43.1313 16.9342 42.4022C14.4981 41.6731 12.2815 40.3496 10.484 38.5509C5.31688 33.3855 4.60644 25.4458 8.34931 19.5159V19.5176Z" fill="#F8312F"/>
</g>
<defs>
<filter id="filter0_d_960_1418" x="1.37402" y="3.375" width="49.1914" height="48.7342" filterUnits="userSpaceOnUse" color-interpolation-filters="sRGB">
<feFlood flood-opacity="0" result="BackgroundImageFix"/>
<feColorMatrix in="SourceAlpha" type="matrix" values="0 0 0 0 0 0 0 0 0 0 0 0 0 0 0 0 0 0 127 0" result="hardAlpha"/>
<feMorphology radius="2" operator="erode" in="SourceAlpha" result="effect1_dropShadow_960_1418"/>
<feOffset dy="2"/>
<feGaussianBlur stdDeviation="2"/>
<feComposite in2="hardAlpha" operator="out"/>
<feColorMatrix type="matrix" values="0 0 0 0 0 0 0 0 0 0 0 0 0 0 0 0 0 0 0.2 0"/>
<feBlend mode="normal" in2="BackgroundImageFix" result="effect1_dropShadow_960_1418"/>
<feBlend mode="normal" in="SourceGraphic" in2="effect1_dropShadow_960_1418" result="shape"/>
</filter>
</defs>
</svg>
