<svg width="54" height="54" viewBox="0 0 54 54" fill="none" xmlns="http://www.w3.org/2000/svg">
<g filter="url(#filter0_d_960_1458)">
<path d="M47.6831 38.6914C48.1133 37.0059 48.3432 34.7979 48.3432 32.9785C48.3432 21.2385 38.8261 11.7215 27.0861 11.7215C15.3461 11.7215 5.8291 21.2385 5.8291 32.9785C5.8291 34.7979 6.05894 37.0059 6.48913 38.6914H47.6831Z" fill="#BD720D"/>
<path d="M27.0861 38.6914C27.0861 36.0342 27.0861 23.6786 27.0861 11.7215C15.3461 11.7215 5.8291 21.2385 5.8291 32.9785C5.8291 34.7979 6.05894 37.0059 6.48913 38.6914H27.0861Z" fill="#804C09"/>
<path d="M6.59155 20.7813L15.9502 25.8204L18.4697 21.1411L9.1111 16.102L6.59155 20.7813Z" fill="#FFE98F"/>
<path d="M26.8376 19.6115C23.3971 17.759 17.703 18.0526 14.9599 19.2516L12.4404 23.9306C12.9493 26.8807 15.8385 31.7959 19.2791 33.6485C24.4473 36.4314 30.3292 35.5452 32.4165 31.6689C34.5036 27.7928 32.0059 22.3944 26.8376 19.6115Z" fill="#BD720D"/>
<path d="M8.21106 19.6935C10.0454 19.6935 11.5325 18.2065 11.5325 16.3721C11.5325 14.5378 10.0454 13.0507 8.21106 13.0507C6.3767 13.0507 4.88965 14.5378 4.88965 16.3721C4.88965 18.2065 6.3767 19.6935 8.21106 19.6935Z" fill="#FFE98F"/>
<path d="M6.32141 23.2028C8.15578 23.2028 9.64283 21.7158 9.64283 19.8814C9.64283 18.047 8.15578 16.56 6.32141 16.56C4.48705 16.56 3 18.047 3 19.8814C3 21.7158 4.48705 23.2028 6.32141 23.2028Z" fill="#FFE98F"/>
<path d="M27.0859 19.7523V35.1369C29.4257 34.7637 31.3852 33.5841 32.4163 31.6691C34.4693 27.8561 32.0836 22.5725 27.0859 19.7523Z" fill="#FF9811"/>
<path d="M51.0002 40.2857C51.0002 41.3863 50.108 42.2785 49.0074 42.2785H5.16472C4.06414 42.2785 3.17188 41.3863 3.17188 40.2857C3.17188 39.1851 4.06414 38.2928 5.16472 38.2928H49.0074C50.108 38.2928 51.0002 39.1851 51.0002 40.2857Z" fill="#CDCDD0"/>
<path d="M27.086 38.2928H5.16472C4.06414 38.2928 3.17188 39.1851 3.17188 40.2857C3.17188 41.3863 4.06414 42.2785 5.16472 42.2785H27.086V38.2928Z" fill="#ACABB1"/>
</g>
<defs>
<filter id="filter0_d_960_1458" x="1" y="11.7215" width="52" height="34.5571" filterUnits="userSpaceOnUse" color-interpolation-filters="sRGB">
<feFlood flood-opacity="0" result="BackgroundImageFix"/>
<feColorMatrix in="SourceAlpha" type="matrix" values="0 0 0 0 0 0 0 0 0 0 0 0 0 0 0 0 0 0 127 0" result="hardAlpha"/>
<feMorphology radius="2" operator="erode" in="SourceAlpha" result="effect1_dropShadow_960_1458"/>
<feOffset dy="2"/>
<feGaussianBlur stdDeviation="2"/>
<feComposite in2="hardAlpha" operator="out"/>
<feColorMatrix type="matrix" values="0 0 0 0 0 0 0 0 0 0 0 0 0 0 0 0 0 0 0.2 0"/>
<feBlend mode="normal" in2="BackgroundImageFix" result="effect1_dropShadow_960_1458"/>
<feBlend mode="normal" in="SourceGraphic" in2="effect1_dropShadow_960_1458" result="shape"/>
</filter>
</defs>
</svg>
