<svg width="54" height="54" viewBox="0 0 54 54" fill="none" xmlns="http://www.w3.org/2000/svg">
<g filter="url(#filter0_d_960_1573)">
<path opacity="0.8" d="M27.0002 4C19.4102 4 13.2002 6.91333 13.2002 10.44C13.2002 10.44 13.2002 31.9067 19.1035 43.9433C19.6402 47.3933 22.9369 50 27.0002 50C30.9869 50 34.2835 47.3933 34.8969 43.9433C40.8002 31.9067 40.8002 10.44 40.8002 10.44C40.8002 6.91333 34.5902 4 27.0002 4Z" fill="#A1B8C7"/>
<path opacity="0.3" d="M27.0002 47.1634C23.7035 47.1634 20.7902 45.86 19.1035 43.9434C19.6402 47.3934 22.9368 50 27.0002 50C30.9868 50 34.2835 47.3934 34.8968 43.9434C33.2102 45.86 30.2968 47.1634 27.0002 47.1634" fill="#555E63"/>
<path opacity="0.3" d="M27 47.7C24.3934 47.7 22.0934 47.01 20.79 45.9367C21.25 47.7767 23.8567 49.2334 27 49.2334C30.1434 49.2334 32.75 47.7767 33.21 45.9367C31.9067 47.01 29.6067 47.7 27 47.7Z" fill="#555E63"/>
<path d="M27 13.3533C20.4067 13.3533 15.5 15.5767 15.5 18.8733C15.5 18.8733 16.1133 33.0567 20.1767 42.64C21.6333 44.4033 24.1633 45.5533 27 45.5533C29.8367 45.5533 32.3667 44.4033 33.8233 42.64C37.8867 33.0567 38.5 18.8733 38.5 18.8733C38.5 15.5767 33.5933 13.3533 27 13.3533Z" fill="white"/>
<path d="M27 13.3533C19.9467 13.3533 15.5 15.6533 15.5 18.95C15.5 22.2467 20.33 25.0833 27 25.0833C33.67 25.0833 38.5 22.2467 38.5 18.95C38.5 15.6533 34.0533 13.3533 27 13.3533Z" fill="#F2ECE3"/>
<path d="M31.4469 25.5434C30.5269 25.5434 29.7603 25.0834 29.6836 24.47C29.6836 24.0867 29.8369 23.78 30.2203 23.4734C30.5269 23.2434 30.9869 23.09 31.4469 23.09H31.6769C32.5969 23.09 33.3636 23.55 33.4403 24.1634C33.4403 24.5467 33.2869 24.8534 32.9036 25.16C32.5969 25.39 32.1369 25.5434 31.6769 25.5434C31.6003 25.4667 31.5236 25.5434 31.4469 25.5434Z" fill="#F2ECE3"/>
<path d="M34.3605 24.93C33.9771 24.93 33.5938 24.7767 33.4405 24.47C33.2871 24.24 33.2871 23.9333 33.4405 23.6267C33.5938 23.3967 33.8238 23.1667 34.0538 23.0133C34.2838 22.86 34.5905 22.86 34.8205 22.86C35.2038 22.86 35.5871 23.0133 35.7405 23.32C36.0471 23.78 35.7405 24.47 35.1271 24.7767C34.8205 24.8533 34.5905 24.93 34.3605 24.93M28.1505 25.85C27.4605 25.85 27.0005 25.4667 26.9238 25.0067C26.9238 24.7 27.0005 24.47 27.3071 24.24C27.5371 24.0867 27.8438 23.9333 28.1505 23.9333H28.3038C28.9938 23.9333 29.4538 24.3167 29.5305 24.7767C29.6071 25.3133 29.0705 25.7733 28.3805 25.85H28.1505M25.6205 26.08C25.3138 26.08 25.0838 26.0033 24.9305 25.7733C24.7771 25.62 24.7005 25.3133 24.7771 25.0833C24.8538 24.8533 24.9305 24.6233 25.1605 24.5467C25.3905 24.3933 25.6205 24.3167 25.8505 24.3167C26.1571 24.3167 26.3871 24.3933 26.5405 24.6233C26.8471 25.0067 26.7705 25.5433 26.3105 25.85C26.0805 26.0033 25.8505 26.08 25.6205 26.08" fill="#F2ECE3"/>
<path d="M36.7365 22.0933C36.5065 21.8633 36.0465 21.8633 35.7399 22.0933C35.5865 22.2467 35.5099 22.4 35.4332 22.5533C35.2799 22.4767 35.0499 22.4 34.8199 22.4C34.5132 22.4 34.1299 22.4767 33.8232 22.63C33.5932 22.7833 33.4399 22.9367 33.2865 23.09C32.9032 22.7833 32.3665 22.5533 31.6765 22.5533H31.3699C30.8332 22.63 30.2965 22.7833 29.9132 23.0133C29.6065 23.2433 29.4532 23.4733 29.3765 23.7033C29.0699 23.4733 28.6865 23.3967 28.3032 23.3967H28.0732C27.6899 23.4733 27.3065 23.6267 26.9999 23.8567C26.8465 23.9333 26.7699 24.0867 26.6932 24.24C26.4632 24.01 26.1565 23.8567 25.7732 23.8567C25.4665 23.8567 25.0832 23.9333 24.8532 24.1633C24.6999 24.24 24.6232 24.3933 24.5465 24.47C24.5465 24.3933 24.4699 24.3933 24.4699 24.3167C24.2399 24.0867 23.7799 24.0867 23.4732 24.3167L23.3199 24.47C23.3199 24.3933 23.2432 24.3167 23.2432 24.24C23.0132 24.01 22.6299 24.01 22.3232 24.24C22.0165 24.47 21.9399 24.8533 22.1699 25.0833C22.3999 25.3133 22.7832 25.3133 23.0899 25.0833C23.1665 25.0833 23.1665 25.0067 23.1665 25.0067C23.1665 25.0067 23.2432 25.2367 23.2432 25.3133C23.4732 25.5433 23.9332 25.5433 24.2399 25.3133C24.2399 25.62 24.3165 25.85 24.5465 26.08C24.7765 26.3867 25.1599 26.54 25.5432 26.54C25.8499 26.54 26.2332 26.4633 26.4632 26.2333C26.6165 26.1567 26.7699 26.0033 26.8465 25.85C27.1532 26.1567 27.6132 26.31 28.1499 26.31H28.3799C28.9932 26.2333 29.5299 25.9267 29.7599 25.4667C30.1432 25.7733 30.7565 26.0033 31.3699 26.0033H31.6765C32.2132 25.9267 32.7499 25.7733 33.1332 25.5433C33.2865 25.4667 33.3632 25.3133 33.4399 25.2367C33.6699 25.39 33.9765 25.4667 34.2832 25.4667C34.5899 25.4667 34.9732 25.39 35.2799 25.2367C36.1232 24.8533 36.4299 24.01 36.1232 23.3967C36.2765 23.3967 36.4299 23.32 36.5065 23.2433C36.8899 22.7833 36.9665 22.4 36.7365 22.0933M26.0032 25.5433C25.8499 25.62 25.7732 25.6967 25.6199 25.6967C25.4665 25.6967 25.3899 25.62 25.2365 25.5433C25.0832 25.39 25.1599 25.0833 25.3899 24.8533C25.5432 24.7767 25.6199 24.7 25.7732 24.7C25.9265 24.7 26.0032 24.7767 26.1565 24.8533C26.3099 25.0833 26.2332 25.39 26.0032 25.5433ZM28.3032 25.4667H28.1499C27.7665 25.4667 27.3832 25.2367 27.3832 25.0067C27.3065 24.7 27.6899 24.3933 28.1499 24.3167H28.3032C28.6865 24.3167 29.0699 24.5467 29.0699 24.7767C29.1465 25.0833 28.7632 25.39 28.3032 25.4667ZM31.6765 25.0833H31.4465C30.7565 25.0833 30.1432 24.7767 30.1432 24.3167C30.0665 23.8567 30.6799 23.3967 31.5232 23.32H31.7532C32.4432 23.32 33.0565 23.6267 33.0565 24.0867C33.0565 24.6233 32.4432 25.0067 31.6765 25.0833ZM34.8965 24.3933C34.7432 24.47 34.5132 24.5467 34.3599 24.5467C34.1299 24.5467 33.8999 24.47 33.8232 24.3167C33.6699 24.01 33.8999 23.6267 34.2832 23.3967C34.4365 23.32 34.6665 23.2433 34.8199 23.2433C35.0499 23.2433 35.2799 23.32 35.3565 23.4733C35.5099 23.7033 35.2799 24.1633 34.8965 24.3933Z" fill="white"/>
<path opacity="0.3" d="M27.0002 4C19.4102 4 13.2002 6.91333 13.2002 10.44C13.2002 13.9667 19.4102 16.88 27.0002 16.88C34.5902 16.88 40.8002 13.9667 40.8002 10.44C40.8002 6.91333 34.5902 4 27.0002 4ZM27.0002 15.1933C20.0235 15.1933 14.3502 12.8933 14.3502 10.0567C14.3502 7.22 20.0235 4.53667 27.0002 4.53667C33.9769 4.53667 39.6502 7.22 39.6502 10.0567C39.6502 12.8933 33.9769 15.1933 27.0002 15.1933Z" fill="#555E63"/>
</g>
<defs>
<filter id="filter0_d_960_1573" x="11.2002" y="4" width="31.6001" height="50" filterUnits="userSpaceOnUse" color-interpolation-filters="sRGB">
<feFlood flood-opacity="0" result="BackgroundImageFix"/>
<feColorMatrix in="SourceAlpha" type="matrix" values="0 0 0 0 0 0 0 0 0 0 0 0 0 0 0 0 0 0 127 0" result="hardAlpha"/>
<feMorphology radius="2" operator="erode" in="SourceAlpha" result="effect1_dropShadow_960_1573"/>
<feOffset dy="2"/>
<feGaussianBlur stdDeviation="2"/>
<feComposite in2="hardAlpha" operator="out"/>
<feColorMatrix type="matrix" values="0 0 0 0 0 0 0 0 0 0 0 0 0 0 0 0 0 0 0.2 0"/>
<feBlend mode="normal" in2="BackgroundImageFix" result="effect1_dropShadow_960_1573"/>
<feBlend mode="normal" in="SourceGraphic" in2="effect1_dropShadow_960_1573" result="shape"/>
</filter>
</defs>
</svg>
