<svg width="54" height="54" viewBox="0 0 54 54" fill="none" xmlns="http://www.w3.org/2000/svg">
<g filter="url(#filter0_d_960_1620)">
<path d="M38.6481 43.5036C40.2237 43.7296 41.9219 43.6263 43.6464 43.122C47.5236 41.9873 50.4048 38.9191 50.9116 35.5615C51.1815 33.7736 50.8101 32.1185 49.9766 30.724C49.3801 29.7255 49.4097 28.4867 50.0917 27.5094C51.0106 26.1911 51.5386 24.6426 51.5386 22.9782C51.5386 19.3481 48.995 16.0599 45.2575 14.5224C43.5043 13.8015 42.1496 12.4036 41.6283 10.7494C40.5283 7.26061 38.0363 5.63259 34.4638 5.1105C31.2442 4.64003 28.3283 5.70282 26.7916 7.70824C25.8905 8.88441 23.9908 9.3828 22.0446 8.9081C20.8905 8.62633 19.6576 8.46556 18.3689 8.45456C12.9576 8.40802 8.34095 11.2046 7.56925 15.2315C7.30524 16.6091 7.49309 17.9604 8.0431 19.2153C8.97896 21.3527 8.12095 23.6356 5.92176 25.2417C3.78942 26.7995 2.46094 28.9166 2.46094 31.2418C2.46094 34.0215 6.96762 36.2393 10.7931 37.5627C13.6921 38.5663 15.4564 40.5234 15.8642 42.792C15.8693 42.8225 15.8752 42.8521 15.8811 42.8826C16.6139 46.6497 20.7576 49.1704 25.6366 48.991C29.5357 48.848 32.9289 47.1659 34.9901 44.877C35.8913 43.8768 37.3484 43.3175 38.6481 43.5036Z" fill="#EFEFEF"/>
<path d="M33.3456 38.0001C39.1872 38.0001 43.9227 33.2646 43.9227 27.423C43.9227 21.5815 39.1872 16.8459 33.3456 16.8459C27.5041 16.8459 22.7686 21.5815 22.7686 27.423C22.7686 33.2646 27.5041 38.0001 33.3456 38.0001Z" fill="#FCCF3F"/>
<path d="M31.2302 21.3933C30.8681 21.3933 30.5338 21.1598 30.4213 20.7959C30.2842 20.35 30.5347 19.8761 30.9815 19.7382C31.7438 19.5038 32.5401 19.3845 33.3456 19.3845C33.8136 19.3845 34.1918 19.7628 34.1918 20.2307C34.1918 20.6986 33.8136 21.0769 33.3456 21.0769C32.7085 21.0769 32.0806 21.1708 31.479 21.3561C31.3961 21.3815 31.3123 21.3933 31.2302 21.3933Z" fill="#FFDD88"/>
<path d="M26.1538 28.2693C25.6859 28.2693 25.3076 27.891 25.3076 27.4231C25.3076 25.0479 26.3492 22.8081 28.1668 21.2757C28.5247 20.9744 29.0578 21.021 29.3591 21.3772C29.6595 21.7343 29.6146 22.2682 29.2575 22.5695C27.8233 23.7795 27 25.548 27 27.4231C27 27.891 26.6217 28.2693 26.1538 28.2693Z" fill="#FFDD88"/>
<path d="M10.9218 16.8461C10.7627 16.8461 10.6028 16.8012 10.4598 16.7081C10.0688 16.4526 9.95799 15.9288 10.2144 15.537C11.2966 13.8785 12.7512 12.6355 14.5358 11.841C14.9639 11.6523 15.4632 11.8435 15.6527 12.2708C15.8422 12.6973 15.6502 13.1982 15.2228 13.3878C13.7404 14.0469 12.5312 15.0818 11.63 16.4627C11.4692 16.7115 11.1976 16.8461 10.9218 16.8461Z" fill="white"/>
<path d="M20.2311 12.6152C20.1921 12.6152 20.1532 12.6126 20.1134 12.6067C20.0957 12.605 19.3333 12.506 18.2426 12.6109C17.7713 12.6549 17.3634 12.3156 17.3186 11.8511C17.2729 11.3857 17.6139 10.9719 18.0784 10.927C19.3908 10.8001 20.3089 10.9262 20.3478 10.9313C20.8107 10.9964 21.1331 11.4246 21.0679 11.8874C21.0087 12.3105 20.6457 12.6152 20.2311 12.6152Z" fill="white"/>
<path d="M22.9707 45.5869C20.3519 45.5869 18.063 43.7101 17.6111 41.0921C17.5316 40.6318 17.8404 40.1934 18.3007 40.1148C18.7602 40.0344 19.1994 40.3441 19.2781 40.8044C19.6131 42.7429 21.4113 44.0875 23.3828 43.8717L23.5089 43.8573C23.9777 43.799 24.3957 44.1281 24.4532 44.5918C24.5108 45.0555 24.1824 45.4786 23.7187 45.5361L23.5808 45.5522C23.3769 45.5759 23.173 45.5869 22.9707 45.5869Z" fill="white"/>
<path d="M17.6576 39.6926C17.3724 39.6926 17.0949 39.5487 16.935 39.2881C16.324 38.2905 15.565 37.8082 15.5574 37.8031C15.158 37.5594 15.0328 37.039 15.2773 36.6404C15.521 36.2411 16.0431 36.1141 16.44 36.3604C16.4857 36.3874 17.5476 37.0475 18.3777 38.4039C18.6222 38.8032 18.497 39.3236 18.0985 39.5673C17.9605 39.652 17.8082 39.6926 17.6576 39.6926Z" fill="white"/>
<path d="M39.0341 34.7211C41.9432 32.7664 43.3507 29.7669 42.1779 28.0214C41.0051 26.2759 37.696 26.4456 34.7869 28.4003C31.8778 30.355 30.4703 33.3545 31.6431 35.1C32.8159 36.8455 36.125 36.6758 39.0341 34.7211Z" fill="#EFA335"/>
</g>
<defs>
<filter id="filter0_d_960_1620" x="0.460938" y="5" width="53.0776" height="48" filterUnits="userSpaceOnUse" color-interpolation-filters="sRGB">
<feFlood flood-opacity="0" result="BackgroundImageFix"/>
<feColorMatrix in="SourceAlpha" type="matrix" values="0 0 0 0 0 0 0 0 0 0 0 0 0 0 0 0 0 0 127 0" result="hardAlpha"/>
<feMorphology radius="2" operator="erode" in="SourceAlpha" result="effect1_dropShadow_960_1620"/>
<feOffset dy="2"/>
<feGaussianBlur stdDeviation="2"/>
<feComposite in2="hardAlpha" operator="out"/>
<feColorMatrix type="matrix" values="0 0 0 0 0 0 0 0 0 0 0 0 0 0 0 0 0 0 0.2 0"/>
<feBlend mode="normal" in2="BackgroundImageFix" result="effect1_dropShadow_960_1620"/>
<feBlend mode="normal" in="SourceGraphic" in2="effect1_dropShadow_960_1620" result="shape"/>
</filter>
</defs>
</svg>
