<svg width="54" height="54" viewBox="0 0 54 54" fill="none" xmlns="http://www.w3.org/2000/svg">
<path d="M20.9239 28.7555L4.98079 29.3321C4.98079 29.3321 3.96994 28.3212 4.11599 27.9599C4.26205 27.5986 17.4647 17.2825 17.9682 17.3555C18.4717 17.4286 19.6286 18.6547 20.5664 18.2203C21.5042 17.786 20.5664 15.2608 20.8547 14.9034C21.1429 14.5421 31.4591 8.98812 32.1086 8.69985C32.7582 8.41158 33.3347 7.76202 34.6338 8.05029C35.933 8.33856 39.1808 8.91509 42.713 11.2981C46.2452 13.6811 49.9273 16.4216 49.6391 17.9359C49.3508 19.4503 20.9239 28.7555 20.9239 28.7555Z" fill="#FFE265"/>
<path d="M9.88435 46.8664C13.4204 46.432 46.3905 39.3637 47.7626 39.1485C49.1348 38.9333 49.9996 37.6341 49.9996 36.189C49.9996 34.7438 49.6383 17.9359 49.6383 17.9359C49.6383 17.9359 48.0509 18.4394 46.1752 18.8737C44.2996 19.3042 28.9292 23.0555 22.8717 24.4277C16.8143 25.7998 7.14389 28.325 6.06001 28.325C4.97613 28.325 4.11133 27.9638 4.11133 27.9638C4.11133 27.9638 4.39959 42.969 4.47262 44.0529C4.54565 45.1368 5.04916 46.432 6.27525 46.7933C7.50135 47.1546 8.3008 47.0585 9.88435 46.8664Z" fill="#FEB502"/>
<path d="M31.2217 12.2705C31.2217 13.1929 32.1595 13.804 33.7123 13.7579C35.4073 13.7079 35.8762 12.7009 35.8224 12.0552C35.7686 11.4057 34.9884 10.8368 33.4433 10.8637C32.0096 10.8906 31.2217 11.4595 31.2217 12.2705Z" fill="#FF8B0D"/>
<path d="M13.9053 23.7704C11.407 24.6121 11.6876 26.7991 12.4179 27.2873C13.1482 27.7754 14.1206 27.7485 15.2583 27.3411C16.396 26.9337 17.1186 26.4686 17.2339 25.7076C17.3415 24.985 16.396 22.9287 13.9053 23.7704ZM36.6054 17.5208C34.9296 17.5977 33.077 18.8007 32.3852 19.9576C31.6549 21.176 31.6011 22.6097 33.2769 23.5014C34.9527 24.3931 40.8794 22.1215 40.5835 20.0383C40.2875 17.9513 38.3657 17.4401 36.6054 17.5208ZM30.7901 34.3748C30.7901 34.3748 33.1692 32.6144 33.1692 31.373C33.1692 30.1277 32.143 27.1873 27.7844 26.9644C23.6987 26.753 21.1812 32.3223 23.8601 35.1896C26.5391 38.0569 28.1611 36.7578 29.1643 36.4887C30.1674 36.2158 30.7901 34.3748 30.7901 34.3748ZM19.0211 39.3791C19.0211 39.3791 21.3849 37.8993 19.5707 36.2773C18.2947 35.1358 16.5881 35.6508 15.7195 36.5387C14.6087 37.6764 14.9085 39.4867 15.9347 40.2977C16.9648 41.1125 19.0211 39.3791 19.0211 39.3791ZM11.0111 32.7259C11.0111 32.7259 10.7421 31.8765 9.77736 31.5344C8.69347 31.15 7.07534 32.4991 7.76718 33.9405C8.38983 35.2396 9.76967 34.8591 9.76967 34.8591L11.0111 32.7259ZM45.6147 33.9674C45.8491 33.7137 47.3827 32.6067 47.3827 31.765C47.3827 30.9271 45.0727 28.3366 42.1247 30.2852C39.1767 32.2339 40.718 35.1819 41.529 35.6701C42.34 36.1582 44.5885 35.0782 45.6147 33.9674Z" fill="#ED6B31"/>
<path d="M14.2675 25.0964C12.6263 25.6653 12.0075 26.826 12.4188 27.2872C12.8531 27.7754 13.7986 28.0982 15.4475 27.5025C16.7236 27.0413 17.3693 26.2687 17.2617 25.5807C17.1848 25.081 15.755 24.5814 14.2675 25.0964ZM8.7943 32.6682C8.07556 33.5676 8.65978 34.59 9.33625 34.8321C10.0127 35.0743 11.2042 34.344 11.1235 33.1294C11.0389 31.911 9.44387 31.8572 8.7943 32.6682ZM17.154 37.5688C15.6089 38.8218 15.5667 40.0478 16.1624 40.463C16.5775 40.7551 18.1072 41.3623 19.5063 40.3284C20.5441 39.5636 20.5633 37.957 20.2366 37.1882C19.9637 36.5348 18.4532 36.5118 17.154 37.5688ZM26.5323 30.7388C24.4645 32.7489 23.9725 36.0121 26.0019 36.7808C27.7892 37.4573 30.3567 37.0499 31.871 35.1857C33.4623 33.2255 33.6314 31.0616 32.609 29.7855C31.3867 28.252 28.1312 29.1898 26.5323 30.7388ZM35.9298 19.5233C33.224 20.4419 31.6289 22.3905 33.0087 23.3668C34.3886 24.3392 35.8222 24.197 37.3904 23.6628C39.1699 23.0593 40.5306 21.6603 40.5844 20.3342C40.6266 19.2465 38.3128 18.7123 35.9298 19.5233ZM43.1557 31.9648C41.3146 33.4638 40.7765 34.9667 41.5337 35.67C42.2909 36.3734 44.1051 36.6963 45.7809 35.5355C47.522 34.3286 47.6488 32.9603 47.4566 31.8572C47.2414 30.6158 45.0467 30.4236 43.1557 31.9648Z" fill="#FF8B0D"/>
</svg>
