<svg width="32" height="32" viewBox="0 0 32 32" fill="none" xmlns="http://www.w3.org/2000/svg">
<path d="M22.3333 1.23077H9.05121C7.79313 1.23077 6.58658 1.71704 5.69698 2.58259C4.80739 3.44814 4.30762 4.62208 4.30762 5.84616V26.1538C4.30762 27.3779 4.80739 28.5519 5.69698 29.4174C6.58658 30.283 7.79313 30.7692 9.05121 30.7692H22.3333C23.5913 30.7692 24.7979 30.283 25.6875 29.4174C26.5771 28.5519 27.0768 27.3779 27.0768 26.1538V5.84616C27.0768 4.62208 26.5771 3.44814 25.6875 2.58259C24.7979 1.71704 23.5913 1.23077 22.3333 1.23077V1.23077ZM10.9486 4.92308H20.4358C21.1907 4.92308 21.9146 5.21484 22.4484 5.73417C22.9821 6.2535 23.282 6.95787 23.282 7.69231V9.53847C23.282 10.2729 22.9821 10.9773 22.4484 11.4966C21.9146 12.0159 21.1907 12.3077 20.4358 12.3077H10.9486C10.1938 12.3077 9.46986 12.0159 8.93611 11.4966C8.40235 10.9773 8.10249 10.2729 8.10249 9.53847V7.69231C8.10249 6.95787 8.40235 6.2535 8.93611 5.73417C9.46986 5.21484 10.1938 4.92308 10.9486 4.92308V4.92308ZM11.8974 17.8462C11.8974 18.3358 11.6975 18.8054 11.3416 19.1516C10.9858 19.4978 10.5032 19.6923 9.99992 19.6923C9.49669 19.6923 9.01407 19.4978 8.65824 19.1516C8.3024 18.8054 8.10249 18.3358 8.10249 17.8462C8.10249 17.3565 8.3024 16.887 8.65824 16.5407C9.01407 16.1945 9.49669 16 9.99992 16C10.5032 16 10.9858 16.1945 11.3416 16.5407C11.6975 16.887 11.8974 17.3565 11.8974 17.8462V17.8462ZM11.8974 23.3846C11.8974 23.8742 11.6975 24.3438 11.3416 24.69C10.9858 25.0363 10.5032 25.2308 9.99992 25.2308C9.49669 25.2308 9.01407 25.0363 8.65824 24.69C8.3024 24.3438 8.10249 23.8742 8.10249 23.3846C8.10249 22.895 8.3024 22.4254 8.65824 22.0792C9.01407 21.733 9.49669 21.5385 9.99992 21.5385C10.5032 21.5385 10.9858 21.733 11.3416 22.0792C11.6975 22.4254 11.8974 22.895 11.8974 23.3846V23.3846ZM21.3845 19.6923C20.8813 19.6923 20.3987 19.4978 20.0428 19.1516C19.687 18.8054 19.4871 18.3358 19.4871 17.8462C19.4871 17.3565 19.687 16.887 20.0428 16.5407C20.3987 16.1945 20.8813 16 21.3845 16C21.8878 16 22.3704 16.1945 22.7262 16.5407C23.0821 16.887 23.282 17.3565 23.282 17.8462C23.282 18.3358 23.0821 18.8054 22.7262 19.1516C22.3704 19.4978 21.8878 19.6923 21.3845 19.6923ZM23.282 23.3846C23.282 23.8742 23.0821 24.3438 22.7262 24.69C22.3704 25.0363 21.8878 25.2308 21.3845 25.2308C20.8813 25.2308 20.3987 25.0363 20.0428 24.69C19.687 24.3438 19.4871 23.8742 19.4871 23.3846C19.4871 22.895 19.687 22.4254 20.0428 22.0792C20.3987 21.733 20.8813 21.5385 21.3845 21.5385C21.8878 21.5385 22.3704 21.733 22.7262 22.0792C23.0821 22.4254 23.282 22.895 23.282 23.3846V23.3846ZM15.6922 19.6923C15.189 19.6923 14.7064 19.4978 14.3505 19.1516C13.9947 18.8054 13.7948 18.3358 13.7948 17.8462C13.7948 17.3565 13.9947 16.887 14.3505 16.5407C14.7064 16.1945 15.189 16 15.6922 16C16.1955 16 16.6781 16.1945 17.0339 16.5407C17.3898 16.887 17.5897 17.3565 17.5897 17.8462C17.5897 18.3358 17.3898 18.8054 17.0339 19.1516C16.6781 19.4978 16.1955 19.6923 15.6922 19.6923ZM17.5897 23.3846C17.5897 23.8742 17.3898 24.3438 17.0339 24.69C16.6781 25.0363 16.1955 25.2308 15.6922 25.2308C15.189 25.2308 14.7064 25.0363 14.3505 24.69C13.9947 24.3438 13.7948 23.8742 13.7948 23.3846C13.7948 22.895 13.9947 22.4254 14.3505 22.0792C14.7064 21.733 15.189 21.5385 15.6922 21.5385C16.1955 21.5385 16.6781 21.733 17.0339 22.0792C17.3898 22.4254 17.5897 22.895 17.5897 23.3846V23.3846Z" fill="#513720"/>
</svg>
