<svg width="32" height="32" viewBox="0 0 32 32" fill="none" xmlns="http://www.w3.org/2000/svg">
<circle cx="16" cy="16" r="14.5" stroke="#FFFBFF" stroke-width="3"/>
<circle cx="16" cy="16" r="14.5" stroke="#217D33" stroke-opacity="0.11" stroke-width="3"/>
<path d="M15.9998 17.5724L10.4965 23.0758C10.2906 23.2817 10.0285 23.3846 9.71029 23.3846C9.39207 23.3846 9.13 23.2817 8.9241 23.0758C8.71819 22.8698 8.61523 22.6078 8.61523 22.2896C8.61523 21.9713 8.71819 21.7093 8.9241 21.5034L14.4275 16L8.9241 10.4966C8.71819 10.2907 8.61523 10.0287 8.61523 9.71044C8.61523 9.39222 8.71819 9.13016 8.9241 8.92425C9.13 8.71834 9.39207 8.61539 9.71029 8.61539C10.0285 8.61539 10.2906 8.71834 10.4965 8.92425L15.9998 14.4276L21.5032 8.92425C21.7091 8.71834 21.9712 8.61539 22.2894 8.61539C22.6076 8.61539 22.8697 8.71834 23.0756 8.92425C23.2815 9.13016 23.3845 9.39222 23.3845 9.71044C23.3845 10.0287 23.2815 10.2907 23.0756 10.4966L17.5722 16L23.0756 21.5034C23.2815 21.7093 23.3845 21.9713 23.3845 22.2896C23.3845 22.6078 23.2815 22.8698 23.0756 23.0758C22.8697 23.2817 22.6076 23.3846 22.2894 23.3846C21.9712 23.3846 21.7091 23.2817 21.5032 23.0758L15.9998 17.5724Z" fill="#FFFBFF"/>
<path d="M15.9998 17.5724L10.4965 23.0758C10.2906 23.2817 10.0285 23.3846 9.71029 23.3846C9.39207 23.3846 9.13 23.2817 8.9241 23.0758C8.71819 22.8698 8.61523 22.6078 8.61523 22.2896C8.61523 21.9713 8.71819 21.7093 8.9241 21.5034L14.4275 16L8.9241 10.4966C8.71819 10.2907 8.61523 10.0287 8.61523 9.71044C8.61523 9.39222 8.71819 9.13016 8.9241 8.92425C9.13 8.71834 9.39207 8.61539 9.71029 8.61539C10.0285 8.61539 10.2906 8.71834 10.4965 8.92425L15.9998 14.4276L21.5032 8.92425C21.7091 8.71834 21.9712 8.61539 22.2894 8.61539C22.6076 8.61539 22.8697 8.71834 23.0756 8.92425C23.2815 9.13016 23.3845 9.39222 23.3845 9.71044C23.3845 10.0287 23.2815 10.2907 23.0756 10.4966L17.5722 16L23.0756 21.5034C23.2815 21.7093 23.3845 21.9713 23.3845 22.2896C23.3845 22.6078 23.2815 22.8698 23.0756 23.0758C22.8697 23.2817 22.6076 23.3846 22.2894 23.3846C21.9712 23.3846 21.7091 23.2817 21.5032 23.0758L15.9998 17.5724Z" fill="#217D33" fill-opacity="0.11"/>
</svg>
