<svg width="33" height="32" viewBox="0 0 33 32" fill="none" xmlns="http://www.w3.org/2000/svg">
<path d="M3.20523 25.8462H29.4616C30.3642 25.8462 31.1027 25.1077 31.1027 24.2052C31.1027 23.3026 30.3642 22.5641 29.4616 22.5641H3.20523C2.30267 22.5641 1.56421 23.3026 1.56421 24.2052C1.56421 25.1077 2.30267 25.8462 3.20523 25.8462ZM3.20523 17.641H29.4616C30.3642 17.641 31.1027 16.9026 31.1027 16C31.1027 15.0975 30.3642 14.359 29.4616 14.359H3.20523C2.30267 14.359 1.56421 15.0975 1.56421 16C1.56421 16.9026 2.30267 17.641 3.20523 17.641ZM1.56421 7.7949C1.56421 8.69746 2.30267 9.43592 3.20523 9.43592H29.4616C30.3642 9.43592 31.1027 8.69746 31.1027 7.7949C31.1027 6.89233 30.3642 6.15387 29.4616 6.15387H3.20523C2.30267 6.15387 1.56421 6.89233 1.56421 7.7949Z" fill="#513720"/>
</svg>
