<svg width="33" height="32" viewBox="0 0 33 32" fill="none" xmlns="http://www.w3.org/2000/svg">
<path d="M3.20514 25.8462H29.4616C30.3641 25.8462 31.1026 25.1077 31.1026 24.2052C31.1026 23.3026 30.3641 22.5641 29.4616 22.5641H3.20514C2.30258 22.5641 1.56412 23.3026 1.56412 24.2052C1.56412 25.1077 2.30258 25.8462 3.20514 25.8462ZM3.20514 17.641H29.4616C30.3641 17.641 31.1026 16.9026 31.1026 16C31.1026 15.0975 30.3641 14.359 29.4616 14.359H3.20514C2.30258 14.359 1.56412 15.0975 1.56412 16C1.56412 16.9026 2.30258 17.641 3.20514 17.641ZM1.56412 7.7949C1.56412 8.69746 2.30258 9.43592 3.20514 9.43592H29.4616C30.3641 9.43592 31.1026 8.69746 31.1026 7.7949C31.1026 6.89233 30.3641 6.15387 29.4616 6.15387H3.20514C2.30258 6.15387 1.56412 6.89233 1.56412 7.7949Z" fill="#6DDE83"/>
</svg>
