<svg width="30" height="22" viewBox="0 0 30 22" fill="none" xmlns="http://www.w3.org/2000/svg">
<path d="M11.8835 1.10141C12.2549 1.47671 12.4332 1.9302 12.4183 2.46188C12.4022 2.99355 12.2085 3.44704 11.8371 3.82234L6.59101 9.12348L27.2968 9.12348C27.8229 9.12348 28.2643 9.30363 28.6208 9.66392C28.9761 10.023 29.1538 10.4683 29.1538 11C29.1538 11.5317 28.9761 11.9777 28.6208 12.3379C28.2643 12.697 27.8229 12.8765 27.2968 12.8765L6.59101 12.8765L11.8835 18.2246C12.2549 18.5999 12.4406 19.0458 12.4406 19.5625C12.4406 20.0779 12.2549 20.5233 11.8835 20.8986C11.5121 21.2739 11.0708 21.4615 10.5595 21.4615C10.0494 21.4615 9.60866 21.2739 9.23726 20.8986L0.741396 12.3135C0.555694 12.1259 0.423843 11.9226 0.345849 11.7037C0.269092 11.4848 0.230713 11.2502 0.230713 11C0.230713 10.7498 0.269092 10.5152 0.345849 10.2963C0.423843 10.0774 0.555694 9.87409 0.741396 9.68643L9.28368 1.05449C9.62414 0.710468 10.0494 0.538452 10.5595 0.538452C11.0708 0.538452 11.5121 0.726105 11.8835 1.10141Z" fill="#6DDE83"/>
</svg>
