<svg width="64" height="64" viewBox="0 0 64 64" fill="none" xmlns="http://www.w3.org/2000/svg">
<g clip-path="url(#clip0_1711_2067)">
<circle cx="32" cy="32" r="32" fill="#F9CB40"/>
<g filter="url(#filter0_d_1711_2067)">
<path d="M39.1694 45.6755C37.9056 45.6755 36.9722 44.4593 37.2444 43.1619L38.8 35.9455L17.9167 35.9455C16.3028 35.9455 15 34.5874 15 32.9049C15 31.2224 16.3028 29.8643 17.9167 29.8643L29.5833 29.8643L29.5833 28.0196C29.5833 27.3912 29.7194 26.7628 29.9917 26.2155L33.9583 17.9247C34.6972 16.3639 36.3306 15.472 37.9833 15.7152L46.6556 16.9923C48.5806 17.2761 50 18.9991 50 21.0059L50 33.4927C50 34.5671 49.5917 36.1077 48.8528 36.8577L40.5111 45.1079C40.1534 45.4745 39.671 45.6786 39.1694 45.6755Z" fill="white"/>
<path d="M20.4095 25.4958C20.4095 25.91 20.7453 26.2458 21.1595 26.2458C21.5737 26.2459 21.9095 25.9101 21.9095 25.4959L20.4095 25.4958ZM21.6906 10.4698C21.3977 10.1769 20.9228 10.1769 20.6299 10.4698L15.8567 15.2425C15.5638 15.5354 15.5638 16.0103 15.8567 16.3032C16.1495 16.5961 16.6244 16.5961 16.9173 16.3032L21.1602 12.0608L25.4026 16.3036C25.6955 16.5965 26.1704 16.5965 26.4633 16.3036C26.7562 16.0108 26.7562 15.5359 26.4633 15.243L21.6906 10.4698ZM21.9095 25.4959L21.9102 11.0001L20.4102 11.0001L20.4095 25.4958L21.9095 25.4959Z" fill="white"/>
<path d="M21.75 38.6755C21.75 38.2613 21.4142 37.9255 21 37.9255C20.5858 37.9255 20.25 38.2613 20.25 38.6755L21.75 38.6755ZM20.4697 54.2059C20.7626 54.4988 21.2374 54.4988 21.5303 54.2059L26.3033 49.4329C26.5962 49.14 26.5962 48.6651 26.3033 48.3722C26.0104 48.0793 25.5355 48.0793 25.2426 48.3722L21 52.6149L16.7574 48.3722C16.4645 48.0793 15.9896 48.0793 15.6967 48.3722C15.4038 48.6651 15.4038 49.14 15.6967 49.4329L20.4697 54.2059ZM20.25 38.6755L20.25 53.6755L21.75 53.6755L21.75 38.6755L20.25 38.6755Z" fill="white"/>
</g>
</g>
<defs>
<filter id="filter0_d_1711_2067" x="11" y="10.25" width="43" height="52.1755" filterUnits="userSpaceOnUse" color-interpolation-filters="sRGB">
<feFlood flood-opacity="0" result="BackgroundImageFix"/>
<feColorMatrix in="SourceAlpha" type="matrix" values="0 0 0 0 0 0 0 0 0 0 0 0 0 0 0 0 0 0 127 0" result="hardAlpha"/>
<feOffset dy="4"/>
<feGaussianBlur stdDeviation="2"/>
<feComposite in2="hardAlpha" operator="out"/>
<feColorMatrix type="matrix" values="0 0 0 0 0 0 0 0 0 0 0 0 0 0 0 0 0 0 0.25 0"/>
<feBlend mode="normal" in2="BackgroundImageFix" result="effect1_dropShadow_1711_2067"/>
<feBlend mode="normal" in="SourceGraphic" in2="effect1_dropShadow_1711_2067" result="shape"/>
</filter>
<clipPath id="clip0_1711_2067">
<rect width="64" height="64" fill="white" transform="translate(0 64) rotate(-90)"/>
</clipPath>
</defs>
</svg>
