<svg width="32" height="32" viewBox="0 0 32 32" fill="none" xmlns="http://www.w3.org/2000/svg">
<path d="M16 9.6L9.6 16L16 22.4L18.24 20.16L15.68 17.6H22.4V14.4H15.68L18.24 11.84L16 9.6ZM16 0C18.2133 0 20.2933 0.420266 22.24 1.2608C24.1867 2.10027 25.88 3.24 27.32 4.68C28.76 6.12 29.8997 7.81333 30.7392 9.76C31.5797 11.7067 32 13.7867 32 16C32 18.2133 31.5797 20.2933 30.7392 22.24C29.8997 24.1867 28.76 25.88 27.32 27.32C25.88 28.76 24.1867 29.9003 22.24 30.7408C20.2933 31.5803 18.2133 32 16 32C13.7867 32 11.7067 31.5803 9.76 30.7408C7.81333 29.9003 6.12 28.76 4.68 27.32C3.24 25.88 2.10027 24.1867 1.2608 22.24C0.420266 20.2933 0 18.2133 0 16C0 13.7867 0.420266 11.7067 1.2608 9.76C2.10027 7.81333 3.24 6.12 4.68 4.68C6.12 3.24 7.81333 2.10027 9.76 1.2608C11.7067 0.420266 13.7867 0 16 0ZM16 3.2C12.4267 3.2 9.4 4.44 6.92 6.92C4.44 9.4 3.2 12.4267 3.2 16C3.2 19.5733 4.44 22.6 6.92 25.08C9.4 27.56 12.4267 28.8 16 28.8C19.5733 28.8 22.6 27.56 25.08 25.08C27.56 22.6 28.8 19.5733 28.8 16C28.8 12.4267 27.56 9.4 25.08 6.92C22.6 4.44 19.5733 3.2 16 3.2Z" fill="#FFFBFF"/>
<path d="M16 9.6L9.6 16L16 22.4L18.24 20.16L15.68 17.6H22.4V14.4H15.68L18.24 11.84L16 9.6ZM16 0C18.2133 0 20.2933 0.420266 22.24 1.2608C24.1867 2.10027 25.88 3.24 27.32 4.68C28.76 6.12 29.8997 7.81333 30.7392 9.76C31.5797 11.7067 32 13.7867 32 16C32 18.2133 31.5797 20.2933 30.7392 22.24C29.8997 24.1867 28.76 25.88 27.32 27.32C25.88 28.76 24.1867 29.9003 22.24 30.7408C20.2933 31.5803 18.2133 32 16 32C13.7867 32 11.7067 31.5803 9.76 30.7408C7.81333 29.9003 6.12 28.76 4.68 27.32C3.24 25.88 2.10027 24.1867 1.2608 22.24C0.420266 20.2933 0 18.2133 0 16C0 13.7867 0.420266 11.7067 1.2608 9.76C2.10027 7.81333 3.24 6.12 4.68 4.68C6.12 3.24 7.81333 2.10027 9.76 1.2608C11.7067 0.420266 13.7867 0 16 0ZM16 3.2C12.4267 3.2 9.4 4.44 6.92 6.92C4.44 9.4 3.2 12.4267 3.2 16C3.2 19.5733 4.44 22.6 6.92 25.08C9.4 27.56 12.4267 28.8 16 28.8C19.5733 28.8 22.6 27.56 25.08 25.08C27.56 22.6 28.8 19.5733 28.8 16C28.8 12.4267 27.56 9.4 25.08 6.92C22.6 4.44 19.5733 3.2 16 3.2Z" fill="#217D33" fill-opacity="0.11"/>
</svg>
